<?xml version="1.0" encoding="utf-8"?>
<!-- Generator: Adobe Illustrator 16.0.0, SVG Export Plug-In . SVG Version: 6.00 Build 0)  -->
<!DOCTYPE svg PUBLIC "-//W3C//DTD SVG 1.1//EN" "http://www.w3.org/Graphics/SVG/1.1/DTD/svg11.dtd">
<svg version="1.1" xmlns="http://www.w3.org/2000/svg" xmlns:xlink="http://www.w3.org/1999/xlink" x="0px" y="0px" width="2048px"
	 height="2048px" viewBox="0 0 2048 2048" enable-background="new 0 0 2048 2048" xml:space="preserve">
<g id="Layer_1">
	<polyline fill="#CDBE7B" points="683,313 773,659 772.7,397.796 683,313 	"/>
	<polyline fill="#CDBE7B" points="317.409,548.447 525.615,601.112 548.282,682.004 317.409,548.447 	"/>
	<circle fill="#ABD5FF" cx="1025" cy="1024" r="1024"/>
	<circle fill="#FFEB97" stroke="#D48AFF" stroke-width="30" stroke-miterlimit="10" cx="1025" cy="1024" r="950"/>
</g>
<g id="Layer_3">
	<g id="Layer_4">
	</g>
</g>
<g id="Layer_2" display="none">
	<g display="inline">
		<g>
			<g id="Snowflake_1_">
				<path fill="#FFFFFF" d="M547.054,1354.275l146.568-84.61l303.069-174.951l883.299-509.896
					c18.323-14.902,23.691-41.269,11.504-62.38l-10.879-18.845c-13.516-23.413-43.455-31.438-66.873-17.922L1566.69,628.289
					l80.184-299.186c3.501-13.056-14.834-29.316-40.946-36.315l-21.017-5.634c-26.114-7-50.125-2.086-53.622,10.97l-111.166,414.771
					l-303.069,174.951l0.022-350.331l303.656-303.621c9.562-9.561,1.812-32.804-17.306-51.926l-15.385-15.385
					c-19.116-19.122-42.363-26.87-51.922-17.313l-219.036,219.005l0.019-285.261c0.002-27.036-21.914-48.958-48.952-48.958
					l-21.757-0.002c-27.036-0.003-48.959,21.914-48.959,48.954l-0.018,285.261L778.411,149.232
					c-9.556-9.558-32.804-1.81-51.924,17.307l-15.386,15.382c-19.12,19.117-26.871,42.366-17.31,51.926l303.617,303.655
					l-0.02,349.94l-303.39-175.187L582.888,297.472c-3.498-13.056-27.505-17.972-53.621-10.978l-21.02,5.631
					c-26.116,6.994-44.45,23.252-40.952,36.308l80.146,299.197l-247.037-142.65c-23.412-13.521-53.356-5.5-66.874,17.916
					l-10.882,18.841c-13.519,23.417-5.497,53.356,17.915,66.877L487.6,731.261l-299.191,80.146
					c-13.056,3.499-17.972,27.506-10.976,53.624l5.629,21.016c6.994,26.119,23.254,44.449,36.311,40.952l414.784-111.11
					l303.048,174.987l-303.411,175.146l-414.77-111.162c-13.057-3.501-29.321,14.829-36.316,40.945l-5.634,21.016
					c-7,26.115-2.089,50.125,10.97,53.62l299.18,80.19L240.169,1393.25c-23.418,13.518-31.441,43.455-17.923,66.873l10.879,18.845
					c13.516,23.417,43.455,31.438,66.872,17.925L547.054,1354.275z"/>
			</g>
			<g>
				<defs>
					<polygon id="SVGID_1_" points="2465.257,158.669 37.285,1557.392 -28.335,72.705 2474.631,94.578 					"/>
				</defs>
				<clipPath id="SVGID_2_">
					<use xlink:href="#SVGID_1_"  overflow="visible"/>
				</clipPath>
				<g clip-path="url(#SVGID_2_)">
					<path fill="#CCFFCC" d="M1761.393,722H1350V310.38c0-21.81-16.973-38.38-38.782-38.38H826.293
						C804.484,272,786,288.57,786,310.38V722H376.908C355.1,722,336,738.746,336,760.555v484.924c0,21.81,19.1,40.521,40.908,40.521
						H786v408.863c0,21.811,18.484,41.137,40.293,41.137h484.925c21.81,0,38.782-19.326,38.782-41.137V1286h411.393
						c21.81,0,38.607-18.711,38.607-40.521V760.555C1800,738.746,1783.202,722,1761.393,722z"/>
					<g>
						<circle fill="#FFFFFF" cx="1071.125" cy="1009.336" r="197.445"/>
						<polygon fill="#FFFFFF" points="893.425,529 1071.125,331.555 1248.824,529 						"/>
						<polygon fill="#FFFFFF" points="1248.824,1491 1071.125,1688.445 893.425,1491 						"/>
						<polygon fill="#FFFFFF" points="1531,831.635 1728.443,1009.336 1531,1187.035 						"/>
						<polygon fill="#FFFFFF" points="607,1187.035 409.555,1009.336 607,831.635 						"/>
					</g>
				</g>
			</g>
		</g>
		<g id="Snowflake">
			<path fill="#FFFFFF" d="M1565.887,631.418l-146.568,84.61L1116.249,890.98l-883.297,509.896
				c-18.325,14.902-23.693,41.269-11.505,62.38l10.879,18.845c13.516,23.413,43.455,31.438,66.873,17.923l247.053-142.619
				l-80.186,299.186c-3.501,13.057,14.835,29.316,40.948,36.315l21.016,5.634c26.114,7,50.124,2.087,53.622-10.97l111.166-414.771
				l303.068-174.95l-0.022,350.331l-303.656,303.621c-9.56,9.561-1.812,32.804,17.305,51.926l15.386,15.385
				c19.117,19.121,42.363,26.869,51.922,17.313l219.035-219.006l-0.018,285.262c-0.003,27.036,21.914,48.958,48.951,48.958
				l21.757,0.003c27.037,0.003,48.96-21.914,48.96-48.954l0.018-285.261l219.006,219.036c9.557,9.558,32.805,1.81,51.924-17.307
				l15.387-15.383c19.119-19.116,26.87-42.365,17.31-51.926l-303.618-303.654l0.021-349.94l303.389,175.187l111.111,414.782
				c3.498,13.057,27.506,17.973,53.621,10.979l21.02-5.631c26.116-6.994,44.45-23.252,40.952-36.308l-80.146-299.197l247.037,142.65
				c23.412,13.521,53.356,5.501,66.874-17.915l10.883-18.842c13.52-23.416,5.497-53.355-17.915-66.877l-247.037-142.647
				l299.191-80.146c13.057-3.499,17.973-27.505,10.976-53.624l-5.63-21.015c-6.994-26.119-23.254-44.449-36.311-40.953
				l-414.784,111.109l-303.049-174.986l303.411-175.147l414.77,111.163c13.058,3.5,29.321-14.829,36.316-40.946l5.634-21.016
				c7-26.115,2.089-50.124-10.97-53.62l-299.181-80.192l247.057-142.618c23.418-13.517,31.441-43.455,17.923-66.873l-10.879-18.845
				c-13.517-23.417-43.455-31.438-66.872-17.925L1565.887,631.418z"/>
		</g>
	</g>
</g>
<g id="Layer_5">
	<polyline fill="#5094BC" points="873.118,589.764 1204.059,589.802 1306,799 1046,967 	"/>
	<polyline fill="#CDBE7B" points="1830.55,856.099 1614.561,751.104 1558.563,782.748 	"/>
	<polyline fill="#CDBE7B" points="1735.139,548.298 1521.565,617.611 1502.881,682.416 	"/>
	<polyline fill="#CDBE7B" points="315.068,1499.524 529,1434 547.121,1365.557 	"/>
	<polyline fill="#CDBE7B" points="762.036,1815.109 968,1666 968.148,1609.371 	"/>
	<polyline fill="#CDBE7B" points="1733.303,1499.918 1517.066,1424.568 1502.168,1366.418 	"/>
	<polyline fill="#CDBE7B" points="971.093,164.636 917.096,352.127 969.516,348.928 	"/>
	<g>
		<g>
			<path fill="#FFFFFF" d="M969.647,169.336c0.768-23.432,21.987-43.826,45.494-43.283c13.11,0.58,26.968-1.967,39.31,3.782
				c17.346,7.306,28.619,26.034,27.475,44.744c-0.055,58.135,0.041,116.251-0.037,174.367c-37.457-0.019-74.916,0.037-112.373-0.019
				C969.647,289.07,969.385,229.193,969.647,169.336z"/>
			<path fill="#FFFFFF" d="M741.584,232.583c7.305-2.754,17.1-4.682,23.28,1.461c38.133,38.282,76.546,76.302,114.547,114.734
				c-24.067,0.486-48.135-0.075-72.2,0.243c-14.271,0.206-27.982,9.607-33.133,22.943c-3.689,8.802-2.041,18.56-2.378,27.831
				c-27.887-27.738-55.625-55.625-83.475-83.4c-4.795-3.821-7.754-9.795-6.744-15.995c1.949-15.563,12.193-28.579,23.226-39.068
				C715.682,250.244,726.563,238.146,741.584,232.583z"/>
			<path fill="#FFFFFF" d="M1286.336,234.306c4.85-5.226,12.885-4.889,19.234-3.09c12.771,3.634,23.6,12.024,32.607,21.538
				c10.975,10.976,23.168,21.651,28.938,36.503c2.863,7.305,5.131,16.8-0.301,23.468c-21.764,22.063-43.957,43.731-65.625,65.889
				c-3.672-5.112-4.74-11.668-8.973-16.425c-6.65-8.392-17.287-13.354-27.961-13.261c-27.457,0.15-54.914-0.206-82.354,0.131
				c-3.092,0.131-6.123-0.468-9.027-1.349C1210.764,309.99,1248.504,272.101,1286.336,234.306z"/>
			<path fill="#FFFFFF" d="M524.739,364.136c14.44-4.252,30.285-7.022,44.949-2.191c5.376,1.816,10.938,5.506,12.138,11.443
				c34.518,129.174,69.315,258.273,103.702,387.484c5.02,3.315,10.507,5.899,15.507,9.309c-71.994,0.394-143.971,0-215.964,0.225
				c-2.79-0.056-5.562-0.356-8.335-0.618c-31.764-17.324-62.798-36.109-94.28-53.995c-39.201-22.625-78.363-45.269-117.563-67.875
				c-18.597-8.578-30.285-29.854-26.332-50.155c1.984-12.1,9.943-21.856,15.526-32.438c11.724-21.913,42.251-30.005,63.322-16.876
				c76.921,44.594,154.141,88.683,230.873,133.557c-25.154-92.934-49.819-185.997-74.859-278.969
				c-2.623-7.678,2.528-15.17,8.034-20.059C493.387,372.039,509.475,367.994,524.739,364.136z"/>
			<path fill="#FFFFFF" d="M1824.176,1090.39c-4.477-3.989-10.807-6.611-16.742-4.514
				c-128.688,34.518-257.412,68.96-386.119,103.439c-1.16-0.486-3.463-1.478-4.625-1.967
				c-93.215-53.901-186.504-107.672-279.719-161.555c94.508-54.408,188.9-109.041,283.371-163.522
				c2.324-0.301,4.494,0.954,6.762,1.366c127.096,34.068,254.209,68.137,381.303,102.204c6.143,1.985,12.473-1.255,16.912-5.394
				c9.215-8.596,14.59-20.509,17.943-32.457c4.475-17.175,10.957-34.817,7.379-52.798c-1.387-7.453-5.133-16.237-13.373-17.942
				c-92.914-24.759-185.734-50.005-278.705-74.503c77.367-45.324,155.357-89.656,232.857-134.774
				c15.451-9.515,23.035-28.618,21.574-46.279c-1.143-14.065-10.525-25.266-16.893-37.289
				c-11.93-20.321-40.527-27.794-60.963-16.107c-77.424,44.688-154.889,89.338-232.258,134.118
				c25.189-93.045,49.951-186.204,74.953-279.306c1.928-5.899-1.123-11.986-5-16.313c-8.504-9.384-20.434-14.871-32.439-18.299
				c-16.855-4.345-33.994-10.769-51.672-7.754c-7.529,1.236-16.652,4.309-19.123,12.381
				c-34.705,129.285-69.299,258.61-104.002,387.896c-3.99,3.708-9.498,5.711-14.141,8.633l0.094,0.601
				c0.918,2.041-1.988,2.678-3.016,3.746c-66.994,38.525-133.84,77.295-200.813,115.838c-25.488-18.504-55.662-30.604-87.016-34.161
				c-38.469-4.664-78.398,3.127-112.205,22.119c-30.885,17.229-56.692,43.47-73.212,74.766
				c-16.744,31.222-24.048,67.405-20.9,102.691c1.011,4.57-3.99,6.143-7.006,8.034c-69.728,40.135-139.361,80.439-209.052,120.633
				c-11.295,6.144-22.045,13.335-33.638,18.86c-0.001-0.023-0.001-0.047-0.002-0.071c-1.225,0.469-2.692,0.89-2.692,2.289
				c0-1.399,1.468-1.82,2.692-2.289c-0.989-25.448-0.148-50.987-0.411-76.474c0.019-84.093-0.111-168.205,0.057-252.317
				c-4.064,0.095-5.994,4.514-8.972,6.705c-54.839,49.352-109.676,98.702-164.533,148.034c-3.785,3.615-8.617,6.443-11.127,11.182
				c59.521,54.2,119.605,107.804,179.388,161.705c0.618,0.806,1.835,2.397,2.452,3.185c-15.77,10.244-32.644,18.823-48.731,28.58
				c-36.035,20.751-71.976,41.635-108.029,62.369c-3.258,2.004-6.968,3.013-10.694,3.763c-3.408,0.693-6.237,2.81-9.215,4.458
				c-54.951,31.764-109.938,63.453-164.89,95.2c-16.313,9.308-24.592,28.99-22.98,47.252c1.104,13.896,10.357,24.93,16.649,36.803
				c11.855,20.658,40.83,28.357,61.413,16.369c77.37-44.612,154.738-89.244,232.053-133.968
				c-25.191,93.082-49.97,186.261-74.992,279.4c-1.854,5.58,0.975,11.424,4.57,15.673c8.204,9.442,19.983,14.966,31.784,18.525
				c17.062,4.381,34.366,10.919,52.31,8.146c7.717-1.16,17.118-4.289,19.665-12.568c34.741-129.491,69.391-259.003,104.134-388.494
				c94.394-54.596,188.994-108.835,283.238-163.692c0.637,6.145,0.15,12.343,0.301,18.522
				c0.037,103.048-0.038,206.096,0.037,309.142c-94.77,94.957-189.688,189.745-284.531,284.605
				c-5.956,6.426-3.728,16.295-0.843,23.656c5.881,15.282,18.523,26.166,29.779,37.495c8.652,9.045,19.065,16.932,31.183,20.602
				c5.919,1.648,13.073,2.453,18.28-1.46c68.941-68.343,137.321-137.247,206.112-205.738c-0.018,89.282-0.018,178.562,0,267.844
				c0.094,17.757,11.8,34.631,28.226,41.257c11.835,5.248,25.022,2.979,37.552,3.485c18.746,0.543,36.914-11.817,43.432-29.386
				c4.344-10.808,2.887-22.644,3.146-33.993c0-83.063,0.039-166.127-0.021-249.17c68.625,68.247,136.873,136.891,205.422,205.214
				c5.32,4.683,13.223,3.633,19.516,1.796c14.684-4.605,26.127-15.452,36.521-26.311c10.809-10.283,21.352-21.917,25.473-36.617
				c1.666-6.312,2.154-14.197-2.885-19.142c-94.676-94.712-189.404-189.351-284.047-284.082c0.061-109.116,0.041-218.229,0-327.345
				c94.547,54.632,189.092,109.302,283.709,163.785c34.836,129.342,69.355,258.78,104.061,388.159
				c1.703,7.004,8.932,10.58,15.395,12.174c15.58,3.858,31.539-0.188,46.561-4.535c14.215-3.387,28.748-8.258,39.518-18.597
				c4.383-4.438,8.672-10.523,7.285-17.079c-24.779-93.515-50.344-186.84-74.842-280.411
				c77.014,44.556,154.104,88.998,231.135,133.5c15.656,9.085,36.615,7.566,50.813-3.652c10.73-8.034,15.508-21.07,22.418-32.082
				c11.705-20.341,4.309-48.754-15.789-60.832c-77.5-44.819-155.057-89.58-232.611-134.325
				c93.23-25.097,186.539-49.949,279.789-75.027c7.568-2.023,10.865-10.301,12.307-17.25c3.803-18.823-3.221-37.234-7.865-55.193
				C1838.822,1109.999,1833.373,1098.481,1824.176,1090.39z"/>
			<path fill="#FFFFFF" d="M1038.193,405.076c1.969,0.844,3.373,2.474,4.777,4.046c51.375,57.198,102.842,114.322,154.252,171.483
				c2.379,2.94,6.182,5.226,6.836,9.196c-110.314-0.075-220.627,0.056-330.94-0.038c0.356-0.749,1.049-2.285,1.405-3.053
				C929.286,526.366,983.524,465.516,1038.193,405.076z"/>
			<path fill="#FFFFFF" d="M215.374,853.02c44.986-11.969,89.936-24.104,134.924-36.091c0.037,38.768,0.019,77.519,0.019,116.287
				c-36.297,9.721-72.612,19.46-108.929,29.162c-8.821,2.229-16.518-4.646-21.519-11.106
				c-10.938-13.767-13.804-31.502-18.448-47.965c-3.202-13.691-4.758-29.162,1.929-42.065
				C205.691,856.615,210.354,853.806,215.374,853.02z"/>
			<path fill="#FFFFFF" d="M220.468,1091.925c5.001-6.105,12.774-12.36,21.164-9.794c36.222,9.72,72.463,19.402,108.685,29.16
				c-0.058,38.75,0.057,77.52,0,116.288c-44.444-11.911-88.87-23.843-133.295-35.716c-5.45-1.03-11.181-3.127-13.821-8.391
				c-6.649-12.36-5.451-27.288-2.566-40.548C205.521,1125.395,208.443,1106.328,220.468,1091.925z"/>
		</g>
		<g>
			<g>
				<path fill="#4ABAFF" d="M1166.955,348.965c1.875-0.412,4.74,0.881,5.92-1.255c2.904,0.881,5.936,1.479,9.027,1.349
					c27.439-0.337,54.896,0.02,82.354-0.131c10.674-0.094,21.311,4.869,27.961,13.261c4.232,4.757,5.301,11.313,8.973,16.425
					c-0.322,0.468-0.977,1.423-1.295,1.892c-0.055,129.941,0,259.902-0.018,389.845c17.211-0.057,34.443,0.112,51.674-0.094
					c0.918,2.041-1.988,2.678-3.016,3.746c-66.994,38.525-133.84,77.295-200.813,115.838
					c-25.488-18.504-55.662-30.604-87.016-34.161c-38.469-4.664-78.398,3.127-112.205,22.119
					c-30.885,17.229-56.692,43.47-73.212,74.766c-16.744,31.222-24.048,67.405-20.9,102.691c1.011,4.57-3.99,6.143-7.006,8.034
					c-69.728,40.135-139.361,80.439-209.052,120.633c-11.295,6.144-22.045,13.335-33.638,18.86
					c-0.993-25.472-0.149-51.035-0.413-76.545c0.019-84.093-0.111-168.205,0.057-252.317c-4.064,0.095-5.994,4.514-8.972,6.705
					c-54.839,49.352-109.676,98.702-164.533,148.034c-3.785,3.615-8.617,6.443-11.127,11.182
					c59.521,54.2,119.605,107.804,179.388,161.705c0.618,0.806,1.835,2.397,2.452,3.185c-15.77,10.244-32.644,18.823-48.731,28.58
					c-36.035,20.751-71.976,41.635-108.029,62.369c-3.258,2.004-6.968,3.013-10.694,3.763c-17.174-2.454-34.892,0.282-52.197-1.423
					c-16.65-3.016-30.659-17.999-31.559-35.043c-0.056-11.798,0-23.598-0.019-35.397c0.057-38.769-0.058-77.538,0-116.288
					c0-59.37-0.019-118.723,0-178.075c0-38.769,0.019-77.52-0.019-116.287c0.28-6.931-0.861-14.104,1.461-20.79
					c4.251-13.991,17.736-24.085,32.063-25.622c30.96-0.767,62.031,0.676,92.915-0.729c2.773,0.262,5.545,0.563,8.335,0.618
					c71.993-0.225,143.97,0.169,215.964-0.225c23.562,0.394,47.122,0.056,70.685,0.169c-0.02-123.519,0.037-247.036-0.02-370.554
					c0.337-9.271-1.312-19.029,2.378-27.831c5.15-13.336,18.861-22.737,33.133-22.943c24.065-0.318,48.133,0.243,72.2-0.243
					c30.021,0.393,60.063,0.074,90.104,0.149c37.457,0.056,74.916,0,112.373,0.019
					C1110.246,348.946,1138.604,348.928,1166.955,348.965z M1038.193,405.076c-54.669,60.439-108.907,121.29-163.67,181.635
					c-0.356,0.768-1.049,2.304-1.405,3.053c110.313,0.094,220.626-0.037,330.94,0.038c-0.654-3.971-4.457-6.256-6.836-9.196
					c-51.41-57.161-102.877-114.285-154.252-171.483C1041.566,407.55,1040.162,405.92,1038.193,405.076z"/>
			</g>
		</g>
	</g>
	<polyline fill="#5094BC" points="419.706,1039.841 542,1237 604.694,1202.782 	"/>
	<polyline display="none" fill="#5094BC" points="1298.706,375.841 1421,573 1483.694,538.782 	"/>
	<polyline fill="#CCCED0" points="1039.193,405.076 1133,589 1205.059,589.802 	"/>
	<g>
	</g>
	<g>
	</g>
	<g>
	</g>
	<g>
	</g>
	<g>
	</g>
	<g>
	</g>
</g>
</svg>
