<?xml version="1.0" encoding="utf-8"?>
<!-- Generator: Adobe Illustrator 16.0.0, SVG Export Plug-In . SVG Version: 6.00 Build 0)  -->
<!DOCTYPE svg PUBLIC "-//W3C//DTD SVG 1.1//EN" "http://www.w3.org/Graphics/SVG/1.1/DTD/svg11.dtd">
<svg version="1.1" id="Layer_1" xmlns="http://www.w3.org/2000/svg" xmlns:xlink="http://www.w3.org/1999/xlink" x="0px" y="0px"
	 width="6772.267px" height="2048px" viewBox="0 0 6772.267 2048" enable-background="new 0 0 6772.267 2048" xml:space="preserve">
<g>
	<path d="M2346.543,545.114c34.547,0,63.703,5.844,87.469,17.5c23.75,11.672,42.984,27.875,57.672,48.609
		s25.484,44.703,32.406,71.922c6.906,27.219,10.375,56.391,10.375,87.484v16.844h-28.516v-18.141
		c0-26.781-2.813-52.266-8.438-76.453s-14.469-45.359-26.563-63.516c-12.094-18.141-28.297-32.391-48.594-42.766
		c-20.313-10.375-45.141-15.563-74.516-15.563c-30.25,0-55.516,5.188-75.828,15.563s-36.5,24.625-48.594,42.766
		c-12.094,18.156-20.953,39.109-26.578,62.859c-5.625,23.766-8.422,49.031-8.422,75.813c0,38.875,8.641,71.719,25.922,98.5
		s38.656,50.766,64.156,71.922c25.484,21.172,53.344,41.047,83.594,59.625c30.234,18.578,58.094,38.875,83.594,60.906
		c25.484,22.031,46.859,47.531,64.141,76.469s25.922,63.719,25.922,104.313c0,31.109-3.469,60.484-10.375,88.141
		s-17.922,51.625-33.047,71.922c-15.125,20.313-34.781,36.297-58.969,47.953s-53.563,17.5-88.109,17.5
		c-34.563,0-63.734-5.844-87.484-17.5c-23.766-11.656-43.203-27.641-58.328-47.953c-15.125-20.297-26.141-44.266-33.047-71.922
		s-10.359-57.031-10.359-88.141v-44.063h27.219v45.359c0,27.656,2.797,53.375,8.422,77.125c5.609,23.766,14.891,44.5,27.859,62.203
		c12.953,17.719,29.578,31.75,49.891,42.125s45.578,15.547,75.828,15.547c29.375,0,54.422-5.172,75.156-15.547
		s37.578-24.406,50.547-42.125c12.953-17.703,22.234-38.438,27.859-62.203c5.625-23.75,8.438-49.469,8.438-77.125
		c0-38-8.641-70.406-25.922-97.188s-38.672-50.766-64.156-71.938c-25.5-21.156-53.359-40.813-83.594-58.968
		c-30.25-18.141-58.109-38.438-83.594-60.906c-25.5-22.469-46.875-48.172-64.156-77.109s-25.906-64.156-25.906-105.625
		c0-66.531,14.688-120.313,44.063-161.359C2233.355,566.942,2280.871,545.989,2346.543,545.114z"/>
	<path d="M2664.048,1458.801h-27.219V551.598h40.172l318.813,848.89v-848.89h27.219v907.203h-34.984l-324-865.734V1458.801z"/>
	<path d="M3125.409,774.52c0-31.969,3.453-61.766,10.359-89.422s18.141-51.844,33.703-72.578
		c15.547-20.734,35.422-37.156,59.609-49.25s53.578-18.156,88.141-18.156c34.547,0,64.141,6.063,88.766,18.156
		s44.703,28.516,60.266,49.25c15.547,20.734,27,44.922,34.344,72.578s11.016,57.453,11.016,89.422v461.375
		c0,31.969-3.672,61.781-11.016,89.422c-7.344,27.656-18.797,51.844-34.344,72.578c-15.563,20.734-35.641,37.156-60.266,49.25
		c-24.625,12.078-54.219,18.141-88.766,18.141c-34.563,0-63.953-6.063-88.141-18.141c-24.188-12.094-44.063-28.516-59.609-49.25
		c-15.563-20.734-26.797-44.922-33.703-72.578c-6.906-27.641-10.359-57.453-10.359-89.422V774.52z M3153.924,1237.191
		c0,27.656,2.797,53.781,8.422,78.406c5.609,24.625,14.891,46.016,27.859,64.156c12.953,18.141,29.797,32.609,50.531,43.406
		c20.734,10.813,46.234,16.203,76.484,16.203c30.234,0,55.938-5.391,77.109-16.203c21.156-10.797,38.219-25.266,51.188-43.406
		c12.953-18.141,22.453-39.531,28.5-64.156s9.078-50.75,9.078-78.406V773.223c0-27.656-3.031-53.781-9.078-78.406
		s-15.547-46-28.5-64.156c-12.969-18.141-30.031-32.609-51.188-43.422c-21.172-10.797-46.875-16.203-77.109-16.203
		c-30.25,0-55.75,5.406-76.484,16.203c-20.734,10.813-37.578,25.281-50.531,43.422c-12.969,18.156-22.25,39.531-27.859,64.156
		c-5.625,24.625-8.422,50.75-8.422,78.406V1237.191z"/>
	<path d="M3814.866,1458.801h-41.469l-163.297-907.203h28.516l158.109,868.328l156.813-863.14h35l147.734,857.953l152.938-863.14
		h25.906l-160.703,907.203h-37.578l-146.453-839.812L3814.866,1458.801z"/>
	<path d="M4697.445,1007.786v27.218H4443.43v423.797h-28.516V551.598h333.063v27.219H4443.43v428.969H4697.445z"/>
	<path d="M4846.473,1458.801V551.598h28.516v879.984h304.547v27.219H4846.473z"/>
	<path d="M5353.203,1243.957l-53.141,213.844h-25.922l219.016-908.5h40.188l224.203,908.5h-28.516l-53.125-213.844H5353.203z
		 M5358.375,1218.035h312.344l-158.109-635.031L5358.375,1218.035z"/>
	<path d="M5954.535,1007.786l-68.688,103.687v347.328h-28.516V551.598h28.516v511.921l336.953-511.921h31.109l-281.234,428.984
		l304.563,478.218h-31.109L5954.535,1007.786z"/>
	<path d="M6672.494,985.754v25.922h-266.969v419.906h317.516v27.219H6377.01V551.598h346.031v27.219h-317.516v406.938H6672.494z"/>
</g>
<line fill="none" stroke="#8C8C8C" stroke-width="9" stroke-miterlimit="10" x1="2107" y1="1506.5" x2="6721" y2="1506.5"/>
<g>
	<path fill="#8C8C8C" d="M2200.223,1569.509c-0.256,0.641-0.896,1.152-1.664,1.408c-6.912,16.257-15.104,30.338-25.601,44.034
		c13.953,11.137,34.946,30.209,46.85,43.395l-7.808,6.784c-11.265-13.057-31.874-32.514-44.93-43.011
		c-11.265,13.697-30.722,32.386-49.282,43.011c-1.408-1.921-4.48-5.12-6.656-6.913c35.458-19.456,63.491-55.811,75.011-83.588
		h-62.851v-8.704h67.843l1.664-0.64L2200.223,1569.509z"/>
	<path fill="#8C8C8C" d="M2328.479,1563.236c-0.64,1.28-2.048,1.664-3.584,1.536c-19.457,48.003-51.075,82.052-86.66,102.021
		c-1.536-1.921-4.608-4.992-7.168-6.784c34.818-19.201,66.563-52.227,84.868-101.509L2328.479,1563.236z"/>
	<path fill="#8C8C8C" d="M2348.315,1605.351h106.885v9.089H2353.18c-0.768,1.279-2.432,2.176-4.096,2.432L2348.315,1605.351z"/>
	<path fill="#8C8C8C" d="M2568.996,1572.709c-0.384,0.641-0.896,1.152-1.664,1.408c-10.113,48.515-35.202,77.315-77.06,92.036
		c-1.408-2.176-4.225-5.632-5.889-7.424c39.682-12.929,64.003-41.475,71.684-80.26h-83.716v-8.576h87.044l1.792-1.152
		L2568.996,1572.709z"/>
	<path fill="#8C8C8C" d="M2608.93,1653.225c32.514-9.088,58.371-24.705,74.116-52.61c1.664,2.177,4.864,4.864,6.784,6.4
		c-17.281,29.441-45.826,46.595-84.356,56.707c-0.256,1.023-1.024,2.176-2.048,2.56l-5.376-8.96l1.536-2.433v-94.34l13.185,0.64
		c-0.128,1.408-1.28,2.561-3.84,2.816V1653.225z"/>
	<path fill="#8C8C8C" d="M2708.001,1605.351h106.885v9.089h-102.021c-0.768,1.279-2.432,2.176-4.096,2.432L2708.001,1605.351z"/>
	<path fill="#8C8C8C" d="M2924.583,1580.646c-0.512,0.64-1.152,1.28-1.92,1.792c-13.44,41.475-34.434,68.1-69.763,86.021
		c-1.536-2.177-3.968-5.12-6.528-7.041c33.538-16.257,54.274-41.857,64.899-75.779h-45.698
		c-7.424,11.521-17.281,22.657-28.673,31.617c-1.792-1.792-4.736-4.224-7.296-5.888c17.409-13.44,32.129-33.025,40.834-55.555
		l12.16,3.456c-0.512,1.28-2.048,1.664-3.712,1.664c-2.56,5.632-5.249,11.009-8.192,16.129h45.058l1.536-0.769L2924.583,1580.646z"
		/>
	<path fill="#8C8C8C" d="M2968.608,1623.016c0-8.064,6.4-14.337,14.337-14.337c7.936,0,14.336,6.4,14.336,14.337
		s-6.4,14.337-14.336,14.337C2974.753,1637.353,2968.608,1630.824,2968.608,1623.016z"/>
	<path fill="#8C8C8C" d="M3046.941,1626.728c-0.256,1.152-0.384,3.2-0.384,6.145c0,12.545,7.937,22.017,18.177,22.017
		c7.808,0,13.313-4.479,15.489-8.704c0.256-0.512,0.768-0.768,1.152-0.64l1.664,0.896c0.384,0.128,0.64,0.513,0,1.92
		c-2.304,5.121-8.96,13.953-20.353,13.953c-7.296,0-15.361-2.176-20.097-9.089c-4.48-6.528-5.632-11.264-5.632-20.225
		c0-4.992,1.28-13.568,8.064-20.353c5.504-5.633,11.904-6.785,18.305-6.785c14.721,0,18.817,13.825,18.817,18.817
		c0,1.792-1.536,2.048-3.584,2.048H3046.941z M3067.294,1622.888c2.432,0,3.456-0.641,3.456-1.792
		c0-2.944-1.536-11.393-9.856-11.393c-5.632,0-11.008,3.712-13.44,13.185H3067.294z"/>
	<path fill="#8C8C8C" d="M3134.622,1628.008c0-9.473-1.792-11.904-3.84-13.824c-1.664-1.536-5.376-2.305-8.192-2.305
		c-3.328,0-8.705,1.664-12.289,7.425c-1.536,2.56-1.792,4.992-1.792,8.576v25.345c0,2.049,0.768,3.328,2.56,3.328h4.608
		c1.152,0,1.28,0.257,1.28,1.152v2.048c0,0.896-0.128,1.408-1.024,1.408c-1.152,0-4.608-0.384-11.649-0.384
		c-6.784,0-10.88,0.384-11.904,0.384c-0.768,0-1.024-0.256-1.024-1.151v-2.305c0-1.023,0.256-1.152,1.536-1.152h4.353
		c1.152,0,1.792-0.768,1.92-3.2c0.128-2.176,0.128-4.479,0.128-6.656v-22.784c0-2.561-0.512-4.864-3.584-6.528l-2.688-1.408
		c-0.64-0.385-0.896-0.641-0.896-1.024v-1.024c0-0.384,0.512-0.896,0.768-1.023l11.265-5.761c1.024-0.512,1.92-0.768,2.432-0.768
		c0.768,0,1.152,0.896,1.152,1.792l0.512,7.424h0.384c3.84-5.248,11.393-9.729,18.817-9.729c6.656,0,11.776,3.841,14.464,9.856h0.64
		c3.84-4.992,11.137-9.856,18.817-9.856c4.48,0,8.448,0.769,11.521,3.841c2.944,3.072,6.145,5.888,6.145,15.744v28.546
		c0,1.92,1.152,2.56,2.688,2.56h3.456c1.152,0,1.408,0.257,1.408,1.152v2.176c0,0.896-0.256,1.28-0.896,1.28
		c-0.896,0-4.48-0.384-10.625-0.384c-6.4,0-11.009,0.384-11.905,0.384c-0.768,0-1.024-0.384-1.024-1.28v-2.176
		c0-0.896,0.256-1.152,1.664-1.152h3.2c1.408,0,2.432-0.64,2.56-2.432c0.256-2.944,0.256-7.553,0.256-10.368v-18.945
		c0-4.225-0.768-7.937-3.712-10.24c-2.304-1.792-5.632-2.688-9.473-2.688c-3.84,0-9.088,2.944-11.136,6.656
		c-1.92,3.712-1.792,7.169-1.792,12.929v22.146c0,1.664,0.64,2.943,2.56,2.943h4.352c1.152,0,1.408,0.257,1.408,1.152v2.048
		c0,1.024-0.256,1.408-0.896,1.408c-0.896,0-4.225-0.384-11.393-0.384c-6.913,0-11.265,0.384-12.033,0.384
		c-0.64,0-0.896-0.384-0.896-1.28v-2.048c0-1.023,0.128-1.28,1.28-1.28h3.712c2.048,0,2.816-0.512,2.816-2.176V1628.008z"/>
	<path fill="#8C8C8C" d="M3242.015,1634.792c0,6.145,0,12.417,0.256,15.104c0.384,3.969,1.792,4.48,3.329,4.48
		c0.768,0,2.688,0,4.224-0.384c1.024-0.256,1.408,0,1.536,0.512l0.384,1.664c0.128,0.769-0.128,1.024-0.64,1.152l-13.44,4.48
		c-0.768,0.256-1.536,0.512-2.56,0.512c-0.512,0-1.024-0.256-1.152-1.536l-1.024-7.425h-0.256
		c-3.584,4.993-11.009,8.961-17.409,8.961c-3.584,0-7.809-0.384-12.033-5.889c-5.249-6.784-4.992-11.008-4.992-25.089v-14.977
		c-0.128-3.584-1.92-4.48-4.864-4.864c-2.176-0.128-2.816-0.256-2.816-0.896v-2.304c0-0.768,0.256-1.024,1.408-1.024h11.393
		c0.768,0,1.28-0.128,1.792-0.256c0.512,0,1.024-0.128,1.408-0.128c0.896,0,1.536,0.641,1.408,1.536
		c-0.128,1.152-0.512,7.168-0.512,14.721v9.217c0,5.12-1.28,13.313,2.816,19.2c3.2,4.608,6.785,4.864,10.241,4.864
		s8.576-3.328,11.008-6.4c0.512-0.64,1.28-2.304,1.28-3.456v-30.593c-0.256-3.585-2.304-4.225-5.504-4.48
		c-2.176,0-2.816-0.256-2.816-0.896v-2.176c0-1.024,0.256-1.152,1.536-1.152h11.904c0.896,0,1.536-0.128,2.176-0.256
		c0.64,0,1.152-0.128,1.536-0.128c0.768,0,1.28,0.641,1.152,1.28c-0.128,1.152-0.768,4.48-0.768,17.024V1634.792z"/>
	<path fill="#8C8C8C" d="M3274.909,1622.632c0,6.656,0,25.985,0.128,29.953c0.128,2.176,0.64,3.968,3.328,3.968h5.76
		c1.152,0,1.408,0.385,1.408,1.152v2.176c0,0.769-0.256,1.28-0.768,1.28c-0.896,0-6.528-0.384-14.464-0.384
		c-8.192,0-13.313,0.384-14.465,0.384c-0.64,0-0.896-0.512-0.896-1.28v-2.176c0-0.896,0.256-1.152,1.664-1.152h6.144
		c1.408,0,2.688-0.896,2.816-3.2c0.128-3.968,0.128-25.984,0.128-33.409v-8.064c0-9.088-0.128-20.736-0.384-24.065
		c-0.256-4.352-2.304-6.399-6.4-7.68l-2.56-0.896c-0.64-0.256-0.768-0.384-0.768-0.64v-1.024c0-0.384,0.384-0.64,1.152-0.896
		c4.48-2.049,10.241-4.353,14.977-7.425c1.152-0.768,1.92-1.023,2.688-1.023c0.896,0,1.152,0.64,1.024,2.304
		c-0.128,7.04-0.512,33.665-0.512,40.706V1622.632z"/>
	<path fill="#8C8C8C" d="M3329.182,1645.545c0,7.296,1.536,9.601,3.84,9.601c2.048,0,3.84-1.024,4.48-1.921
		c0.512-0.64,0.768-0.896,1.28-0.512l1.28,1.024c0.384,0.384,0.64,1.023-0.128,2.304c-1.024,1.92-3.457,6.272-9.985,6.272
		c-4.608,0-7.936-3.328-9.088-8.576h-0.256c-2.688,3.2-6.912,5.888-12.672,7.808c-2.432,0.769-4.736,0.769-7.553,0.769
		c-3.072,0-7.68-2.561-7.68-10.625c0-5.888,2.688-11.008,12.801-15.488c5.76-2.561,12.417-5.632,14.464-7.425v-8.192
		c-0.256-2.176-0.384-5.504-1.792-7.168s-3.968-2.816-7.68-2.816c-2.56,0-6.528,1.024-8.32,2.688
		c-1.792,1.664-0.64,3.584-0.64,5.889c0,4.479-1.536,7.296-6.785,7.296c-2.048,0-3.072-1.152-3.072-4.096
		c0-4.097,3.584-8.961,8.832-12.033c5.376-3.2,9.857-4.48,15.617-4.48c6.016,0,8.448,1.793,10.24,3.457
		c2.688,2.688,2.816,5.632,2.816,9.088v19.585V1645.545z M3319.837,1632.616c-4.608,3.456-17.153,6.016-17.153,16.641
		c0,4.736,2.816,7.04,6.656,7.04c3.712,0,10.497-4.479,10.497-7.937V1632.616z"/>
	<path fill="#8C8C8C" d="M3362.459,1644.776c0,9.601,4.353,11.265,6.657,11.265c2.944,0,6.656-0.512,8.448-1.664
		c0.64-0.384,1.152-0.256,1.536,0.256l0.64,1.152c0.384,0.512,0.128,1.024-0.256,1.408c-1.28,1.28-6.528,5.12-14.208,5.12
		c-6.272,0-12.417-6.017-12.417-10.881c0-5.248,0.384-16.513,0.384-18.305v-2.816c0-2.304,0.128-11.008,0.256-16.385h-7.808
		c-1.152,0-1.92-0.512-1.92-1.536c0-1.023,0.768-1.407,2.304-2.304c3.072-1.792,12.929-11.648,14.593-16.001
		c0.384-1.023,1.024-1.279,1.792-1.279c1.024,0,1.28,0.896,1.28,1.92l-0.64,12.544h17.793c0.768,0,1.152,0.641,0.896,1.152
		l-1.28,4.48c-0.128,0.64-0.384,1.023-1.152,1.023h-16.513c-0.256,5.889-0.384,12.161-0.384,18.049V1644.776z"/>
	<path fill="#8C8C8C" d="M3393.177,1653.481c-5.888-7.041-7.041-11.777-7.041-20.865c0-6.528,3.457-14.721,11.009-20.609
		c6.656-5.12,12.929-6.145,17.153-6.145c7.04,0,14.081,3.585,17.921,7.425c5.76,5.889,8.704,12.545,8.704,20.865
		c0,13.952-12.544,28.161-28.289,28.161C3406.489,1662.313,3398.553,1659.881,3393.177,1653.481z M3430.17,1632.872
		c0-14.209-10.368-23.169-16.896-23.169c-3.457,0-6.785,0.768-9.856,4.096c-4.993,5.12-6.785,10.369-6.785,20.098
		c0,7.168,0.768,12.032,4.864,17.921c2.944,4.224,6.656,6.656,12.673,6.656C3423.898,1658.474,3430.17,1646.568,3430.17,1632.872z"
		/>
	<path fill="#8C8C8C" d="M3457.815,1626.728c0-6.528-1.024-7.809-4.608-9.729l-2.432-1.28c-0.768-0.256-1.024-0.384-1.024-0.896
		v-0.769c0-0.512,0.256-0.768,1.024-1.151l12.672-6.528c0.768-0.384,1.28-0.513,1.792-0.513c0.768,0,0.896,0.769,0.896,1.536
		l0.64,9.089h0.512c3.84-5.889,9.856-11.137,15.36-11.137c4.353,0,6.528,2.688,6.528,5.633c0,3.712-3.072,6.271-5.376,6.271
		c-1.408,0-2.688-0.512-3.712-1.023c-1.024-0.641-2.56-1.024-4.224-1.024c-2.048,0-5.376,1.28-7.552,5.376
		c-0.768,1.408-1.28,3.713-1.28,4.097v26.625c0,3.969,0.896,5.248,3.584,5.248h6.016c0.768,0,0.896,0.385,0.896,1.152v2.305
		c0,0.768-0.128,1.151-0.64,1.151c-0.768,0-6.656-0.384-13.568-0.384c-7.937,0-13.313,0.384-14.081,0.384
		c-0.512,0-0.768-0.256-0.768-1.28v-2.176c0-0.896,0.256-1.152,1.408-1.152h4.993c1.92,0,2.816-0.768,2.816-2.432
		c0.128-4.225,0.128-8.704,0.128-15.36V1626.728z"/>
	<path fill="#8C8C8C" d="M3535.253,1613.415h-8.833c-0.64,0-0.896-0.256-0.64-1.408l0.512-3.84c0.128-0.769,0.512-0.896,1.536-0.896
		h7.424v-2.304c0-12.673,3.584-20.993,8.576-26.625c6.784-7.425,13.825-10.112,20.993-10.112c6.016,0,11.648,2.304,11.648,7.168
		c0,3.072-3.328,5.504-5.376,5.504c-1.28,0-2.56-0.256-3.584-0.768c-1.152-0.641-2.56-2.305-3.072-2.944
		c-1.664-2.048-3.456-2.944-5.888-2.944c-3.328,0-6.784,0.896-9.601,4.48c-4.736,6.017-4.48,17.152-4.48,26.113v2.432h15.489
		c0.896,0,1.024,0.769,0.896,1.28l-0.64,4.225c-0.128,0.512-0.64,0.64-1.664,0.64h-14.081v11.521c0,15.104,0,26.882,0.128,28.289
		c0.256,2.177,0.64,3.328,3.328,3.328h7.296c1.152,0,1.408,0.257,1.408,1.024v2.048c0,1.024-0.256,1.536-0.896,1.536
		c-0.768,0-5.504-0.384-15.361-0.384c-7.041,0-13.569,0.384-14.593,0.384c-0.768,0-1.024-0.256-1.024-0.896v-2.816
		c0-0.64,0.256-0.896,1.28-0.896h6.145c2.432,0,2.944-1.536,3.072-4.479v-24.065V1613.415z"/>
	<path fill="#8C8C8C" d="M3573.653,1626.728c0-6.528-1.024-7.809-4.608-9.729l-2.432-1.28c-0.768-0.256-1.024-0.384-1.024-0.896
		v-0.769c0-0.512,0.256-0.768,1.024-1.151l12.672-6.528c0.768-0.384,1.28-0.513,1.792-0.513c0.768,0,0.896,0.769,0.896,1.536
		l0.64,9.089h0.512c3.84-5.889,9.856-11.137,15.36-11.137c4.353,0,6.528,2.688,6.528,5.633c0,3.712-3.072,6.271-5.376,6.271
		c-1.408,0-2.688-0.512-3.712-1.023c-1.024-0.641-2.56-1.024-4.224-1.024c-2.048,0-5.376,1.28-7.552,5.376
		c-0.768,1.408-1.28,3.713-1.28,4.097v26.625c0,3.969,0.896,5.248,3.584,5.248h6.016c0.768,0,0.896,0.385,0.896,1.152v2.305
		c0,0.768-0.128,1.151-0.64,1.151c-0.768,0-6.656-0.384-13.568-0.384c-7.937,0-13.313,0.384-14.081,0.384
		c-0.512,0-0.768-0.256-0.768-1.28v-2.176c0-0.896,0.256-1.152,1.408-1.152h4.993c1.92,0,2.816-0.768,2.816-2.432
		c0.128-4.225,0.128-8.704,0.128-15.36V1626.728z"/>
	<path fill="#8C8C8C" d="M3615.124,1653.481c-5.888-7.041-7.041-11.777-7.041-20.865c0-6.528,3.457-14.721,11.009-20.609
		c6.656-5.12,12.929-6.145,17.153-6.145c7.04,0,14.081,3.585,17.921,7.425c5.76,5.889,8.704,12.545,8.704,20.865
		c0,13.952-12.544,28.161-28.289,28.161C3628.437,1662.313,3620.5,1659.881,3615.124,1653.481z M3652.118,1632.872
		c0-14.209-10.368-23.169-16.896-23.169c-3.457,0-6.785,0.768-9.856,4.096c-4.993,5.12-6.785,10.369-6.785,20.098
		c0,7.168,0.768,12.032,4.864,17.921c2.944,4.224,6.656,6.656,12.673,6.656C3645.846,1658.474,3652.118,1646.568,3652.118,1632.872z
		"/>
	<path fill="#8C8C8C" d="M3724.054,1653.865c0,2.048,1.152,2.688,2.816,2.688h4.096c1.152,0,1.408,0.385,1.408,1.152v2.048
		c0,0.896-0.256,1.408-1.024,1.408c-0.896,0-4.864-0.384-12.161-0.384c-6.528,0-10.625,0.384-11.521,0.384
		c-0.768,0-1.024-0.384-1.024-1.408v-2.048c0-0.896,0.384-1.152,1.664-1.152h3.712c1.408,0,2.432-0.64,2.56-2.943
		c0.128-3.328,0.256-7.425,0.256-10.753v-16.896c0-5.12,0-8.833-3.712-11.521c-3.072-2.305-6.144-2.305-9.344-2.305
		c-2.048,0-6.528,0.896-10.369,4.992c-2.56,2.816-2.944,6.272-2.944,8.705v26.497c0,3.456,0.384,4.224,3.072,4.224h3.2
		c1.024,0,1.28,0.385,1.28,1.28v2.177c0,0.768-0.256,1.151-0.896,1.151c-0.896,0-4.353-0.384-11.137-0.384
		c-6.528,0-10.625,0.384-11.393,0.384c-0.64,0-0.896-0.384-0.896-1.151v-2.305c0-0.768,0.256-1.152,1.28-1.152h3.712
		c1.664,0,2.56-0.384,2.56-2.56v-29.953c0-3.841-2.048-6.017-5.248-7.553l-1.024-0.512c-0.896-0.385-1.024-0.769-1.024-1.152v-0.64
		c0-0.641,0.512-1.024,1.152-1.28l11.008-6.145c1.024-0.512,1.792-0.896,2.304-0.896c0.64,0,0.896,0.513,1.024,1.536l0.896,7.809
		h0.256c3.712-4.608,11.136-9.345,17.537-9.345c3.84,0,7.809,0.769,10.88,2.816c3.84,2.561,7.041,8.961,7.041,12.161V1653.865z"/>
	<path fill="#8C8C8C" d="M3756.436,1644.776c0,9.601,4.353,11.265,6.657,11.265c2.944,0,6.656-0.512,8.448-1.664
		c0.64-0.384,1.152-0.256,1.536,0.256l0.64,1.152c0.384,0.512,0.128,1.024-0.256,1.408c-1.28,1.28-6.528,5.12-14.208,5.12
		c-6.272,0-12.417-6.017-12.417-10.881c0-5.248,0.384-16.513,0.384-18.305v-2.816c0-2.304,0.128-11.008,0.256-16.385h-7.808
		c-1.152,0-1.92-0.512-1.92-1.536c0-1.023,0.768-1.407,2.304-2.304c3.072-1.792,12.929-11.648,14.593-16.001
		c0.384-1.023,1.024-1.279,1.792-1.279c1.024,0,1.28,0.896,1.28,1.92l-0.64,12.544h17.793c0.768,0,1.152,0.641,0.896,1.152
		l-1.28,4.48c-0.128,0.64-0.384,1.023-1.152,1.023h-16.513c-0.256,5.889-0.384,12.161-0.384,18.049V1644.776z"/>
	<path fill="#8C8C8C" d="M3790.354,1626.728c-0.256,1.152-0.384,3.2-0.384,6.145c0,12.545,7.937,22.017,18.177,22.017
		c7.808,0,13.313-4.479,15.489-8.704c0.256-0.512,0.768-0.768,1.152-0.64l1.664,0.896c0.384,0.128,0.64,0.513,0,1.92
		c-2.304,5.121-8.96,13.953-20.353,13.953c-7.296,0-15.361-2.176-20.097-9.089c-4.48-6.528-5.632-11.264-5.632-20.225
		c0-4.992,1.28-13.568,8.064-20.353c5.504-5.633,11.904-6.785,18.305-6.785c14.721,0,18.817,13.825,18.817,18.817
		c0,1.792-1.536,2.048-3.584,2.048H3790.354z M3810.707,1622.888c2.432,0,3.456-0.641,3.456-1.792
		c0-2.944-1.536-11.393-9.856-11.393c-5.632,0-11.008,3.712-13.44,13.185H3810.707z"/>
	<path fill="#8C8C8C" d="M3887.507,1653.865c0,2.048,1.152,2.688,2.816,2.688h4.096c1.152,0,1.408,0.385,1.408,1.152v2.048
		c0,0.896-0.256,1.408-1.024,1.408c-0.896,0-4.864-0.384-12.161-0.384c-6.528,0-10.625,0.384-11.521,0.384
		c-0.768,0-1.024-0.384-1.024-1.408v-2.048c0-0.896,0.384-1.152,1.664-1.152h3.712c1.408,0,2.432-0.64,2.56-2.943
		c0.128-3.328,0.256-7.425,0.256-10.753v-16.896c0-5.12,0-8.833-3.712-11.521c-3.072-2.305-6.144-2.305-9.344-2.305
		c-2.048,0-6.528,0.896-10.369,4.992c-2.56,2.816-2.944,6.272-2.944,8.705v26.497c0,3.456,0.384,4.224,3.072,4.224h3.2
		c1.024,0,1.28,0.385,1.28,1.28v2.177c0,0.768-0.256,1.151-0.896,1.151c-0.896,0-4.353-0.384-11.137-0.384
		c-6.528,0-10.625,0.384-11.393,0.384c-0.64,0-0.896-0.384-0.896-1.151v-2.305c0-0.768,0.256-1.152,1.28-1.152h3.712
		c1.664,0,2.56-0.384,2.56-2.56v-29.953c0-3.841-2.048-6.017-5.248-7.553l-1.024-0.512c-0.896-0.385-1.024-0.769-1.024-1.152v-0.64
		c0-0.641,0.512-1.024,1.152-1.28l11.008-6.145c1.024-0.512,1.792-0.896,2.304-0.896c0.64,0,0.896,0.513,1.024,1.536l0.896,7.809
		h0.256c3.712-4.608,11.136-9.345,17.537-9.345c3.84,0,7.809,0.769,10.88,2.816c3.84,2.561,7.041,8.961,7.041,12.161V1653.865z"/>
	<path fill="#8C8C8C" d="M3944.722,1582.821c0-4.864-0.896-6.399-8.064-7.552c-0.769-0.128-0.896-0.384-0.896-0.896v-2.176
		c0-0.512,0.257-0.769,1.024-0.896c4.992-1.023,11.648-2.176,14.081-2.688c1.151-0.128,2.048-0.384,2.943-0.384
		c0.641,0,0.769,0.896,0.641,2.304c-0.384,6.4-0.513,24.961-0.513,41.218v28.289c0,4.736,0.257,10.369,1.28,11.648
		c1.152,1.28,3.841,2.049,5.633,2.177s2.304,0.256,2.56,0.896l0.256,1.024c0.128,0.768-0.128,1.152-0.896,1.408l-14.465,4.864
		c-0.768,0.256-1.408-0.128-1.664-1.024l-1.664-5.632c-4.096,4.096-12.288,6.912-18.816,6.912c-4.225,0-9.089,0.256-15.105-5.889
		c-6.528-6.4-8.064-12.16-8.064-20.736c0-7.937,2.944-15.745,8.96-21.762c4.992-5.376,11.904-8.064,19.072-8.064
		c5.249,0,9.857,0.769,13.697,1.921V1582.821z M3944.722,1623.399c0-1.792,0-4.224-1.152-6.272
		c-1.792-3.456-5.888-6.912-13.44-6.912c-3.968,0-8.32,1.152-11.648,4.608c-4.992,5.376-5.889,12.16-5.889,17.024
		c0,14.465,9.984,24.962,17.409,24.962c7.168,0,12.673-3.713,13.952-7.041c0.641-1.92,0.769-2.944,0.769-4.352V1623.399z"/>
</g>
<g>
	<polyline fill="#CDBE7B" points="682,313 772,659 771.7,397.796 682,313 	"/>
	<polyline fill="#CDBE7B" points="316.408,548.447 524.615,601.112 547.282,682.004 316.408,548.447 	"/>
	<circle fill="#ABD5FF" cx="1024" cy="1024" r="1024"/>
	<circle fill="#FFEB97" stroke="#D48AFF" stroke-width="30" stroke-miterlimit="10" cx="1024" cy="1024" r="950"/>
	<polyline fill="#5094BC" points="872.117,589.764 1203.059,589.802 1305,799 1045,967 	"/>
	<polyline fill="#CDBE7B" points="1829.55,856.1 1613.561,751.104 1557.563,782.748 	"/>
	<polyline fill="#CDBE7B" points="1734.139,548.298 1520.565,617.611 1501.881,682.416 	"/>
	<polyline fill="#CDBE7B" points="314.068,1499.524 528,1434 546.121,1365.557 	"/>
	<polyline fill="#CDBE7B" points="761.036,1815.109 967,1666 967.148,1609.371 	"/>
	<polyline fill="#CDBE7B" points="1732.303,1499.918 1516.066,1424.568 1501.168,1366.418 	"/>
	<polyline fill="#CDBE7B" points="970.094,164.636 916.096,352.127 968.516,348.928 	"/>
	<g>
		<g>
			<path fill="#FFFFFF" d="M968.647,169.336c0.768-23.432,21.987-43.826,45.494-43.283c13.11,0.58,26.968-1.967,39.31,3.782
				c17.346,7.306,28.619,26.034,27.475,44.744c-0.055,58.135,0.041,116.251-0.037,174.367c-37.457-0.019-74.916,0.037-112.373-0.019
				C968.647,289.07,968.385,229.193,968.647,169.336z"/>
			<path fill="#FFFFFF" d="M740.584,232.583c7.305-2.754,17.1-4.682,23.28,1.461c38.133,38.282,76.546,76.302,114.547,114.734
				c-24.067,0.486-48.135-0.075-72.2,0.243c-14.271,0.206-27.982,9.607-33.133,22.943c-3.689,8.802-2.041,18.56-2.378,27.831
				c-27.887-27.738-55.625-55.625-83.475-83.4c-4.795-3.821-7.754-9.795-6.744-15.995c1.949-15.563,12.193-28.579,23.226-39.068
				C714.682,250.244,725.563,238.146,740.584,232.583z"/>
			<path fill="#FFFFFF" d="M1285.336,234.306c4.85-5.226,12.885-4.889,19.234-3.09c12.771,3.634,23.6,12.024,32.607,21.538
				c10.975,10.976,23.168,21.651,28.938,36.503c2.863,7.305,5.131,16.8-0.301,23.468c-21.764,22.063-43.957,43.731-65.625,65.889
				c-3.672-5.112-4.74-11.668-8.973-16.425c-6.65-8.392-17.287-13.354-27.961-13.261c-27.457,0.15-54.914-0.206-82.354,0.131
				c-3.092,0.131-6.123-0.468-9.027-1.349C1209.764,309.99,1247.504,272.101,1285.336,234.306z"/>
			<path fill="#FFFFFF" d="M523.739,364.136c14.44-4.252,30.285-7.022,44.949-2.191c5.376,1.816,10.938,5.506,12.138,11.443
				c34.518,129.174,69.315,258.273,103.702,387.484c5.02,3.315,10.507,5.899,15.507,9.309c-71.994,0.394-143.971,0-215.964,0.225
				c-2.79-0.056-5.562-0.356-8.335-0.618c-31.764-17.324-62.798-36.109-94.28-53.995c-39.201-22.625-78.363-45.269-117.563-67.875
				c-18.597-8.578-30.285-29.854-26.332-50.155c1.984-12.1,9.943-21.856,15.526-32.438c11.724-21.913,42.251-30.005,63.322-16.876
				c76.921,44.594,154.141,88.683,230.873,133.557c-25.154-92.934-49.819-185.997-74.859-278.969
				c-2.623-7.678,2.528-15.17,8.034-20.059C492.387,372.039,508.475,367.994,523.739,364.136z"/>
			<path fill="#FFFFFF" d="M1823.176,1090.39c-4.477-3.989-10.807-6.611-16.742-4.514
				c-128.688,34.518-257.412,68.96-386.119,103.439c-1.16-0.486-3.463-1.478-4.625-1.967
				c-93.215-53.901-186.504-107.672-279.719-161.555c94.508-54.408,188.9-109.041,283.371-163.522
				c2.324-0.301,4.494,0.954,6.762,1.366c127.096,34.068,254.209,68.137,381.303,102.204c6.143,1.985,12.473-1.255,16.912-5.394
				c9.215-8.596,14.59-20.509,17.943-32.457c4.475-17.175,10.957-34.817,7.379-52.798c-1.387-7.453-5.133-16.237-13.373-17.942
				c-92.914-24.759-185.734-50.005-278.705-74.503c77.367-45.324,155.357-89.656,232.857-134.774
				c15.451-9.515,23.035-28.618,21.574-46.279c-1.143-14.065-10.525-25.266-16.893-37.289
				c-11.93-20.321-40.527-27.794-60.963-16.107c-77.424,44.688-154.889,89.338-232.258,134.118
				c25.189-93.045,49.951-186.204,74.953-279.306c1.928-5.899-1.123-11.986-5-16.313c-8.504-9.384-20.434-14.871-32.439-18.299
				c-16.855-4.345-33.994-10.769-51.672-7.754c-7.529,1.236-16.652,4.309-19.123,12.381
				c-34.705,129.285-69.299,258.61-104.002,387.896c-3.99,3.708-9.498,5.711-14.141,8.633l0.094,0.601
				c0.918,2.041-1.988,2.678-3.016,3.746c-66.994,38.525-133.84,77.295-200.813,115.838c-25.488-18.504-55.662-30.604-87.016-34.161
				c-38.469-4.664-78.398,3.127-112.205,22.119c-30.885,17.229-56.692,43.47-73.212,74.766
				c-16.744,31.222-24.048,67.405-20.9,102.691c1.011,4.57-3.99,6.143-7.006,8.034c-69.728,40.135-139.361,80.439-209.052,120.633
				c-11.295,6.144-22.045,13.335-33.638,18.86c-0.001-0.023-0.001-0.047-0.002-0.071c-1.225,0.469-2.692,0.89-2.692,2.289
				c0-1.399,1.468-1.82,2.692-2.289c-0.989-25.448-0.148-50.987-0.411-76.474c0.019-84.093-0.111-168.205,0.057-252.317
				c-4.064,0.095-5.994,4.514-8.972,6.705c-54.839,49.352-109.676,98.702-164.533,148.034c-3.785,3.615-8.617,6.443-11.127,11.182
				c59.521,54.2,119.605,107.804,179.388,161.705c0.618,0.806,1.835,2.397,2.452,3.185c-15.77,10.244-32.644,18.823-48.731,28.58
				c-36.035,20.751-71.976,41.635-108.029,62.369c-3.258,2.004-6.968,3.013-10.694,3.763c-3.408,0.693-6.237,2.81-9.215,4.458
				c-54.951,31.764-109.938,63.453-164.89,95.2c-16.313,9.308-24.592,28.99-22.98,47.252c1.104,13.896,10.357,24.93,16.649,36.803
				c11.855,20.658,40.83,28.357,61.413,16.369c77.37-44.612,154.738-89.244,232.053-133.968
				c-25.191,93.082-49.97,186.261-74.992,279.4c-1.854,5.58,0.975,11.424,4.57,15.673c8.204,9.442,19.983,14.966,31.784,18.525
				c17.062,4.381,34.366,10.919,52.31,8.146c7.717-1.16,17.118-4.289,19.665-12.568c34.741-129.491,69.391-259.003,104.134-388.494
				c94.394-54.596,188.994-108.835,283.238-163.692c0.637,6.145,0.15,12.343,0.301,18.522
				c0.037,103.048-0.038,206.096,0.037,309.142c-94.77,94.957-189.688,189.745-284.531,284.605
				c-5.956,6.426-3.728,16.295-0.843,23.656c5.881,15.282,18.523,26.166,29.779,37.495c8.652,9.045,19.065,16.932,31.183,20.602
				c5.919,1.648,13.073,2.453,18.28-1.46c68.941-68.343,137.321-137.247,206.112-205.738c-0.018,89.282-0.018,178.562,0,267.844
				c0.094,17.757,11.8,34.631,28.226,41.257c11.835,5.248,25.022,2.979,37.552,3.485c18.746,0.543,36.914-11.817,43.432-29.386
				c4.344-10.808,2.887-22.644,3.146-33.993c0-83.063,0.039-166.127-0.021-249.17c68.625,68.247,136.873,136.891,205.422,205.214
				c5.32,4.683,13.223,3.633,19.516,1.796c14.684-4.605,26.127-15.452,36.521-26.311c10.809-10.283,21.352-21.917,25.473-36.617
				c1.666-6.312,2.154-14.197-2.885-19.142c-94.676-94.712-189.404-189.351-284.047-284.082c0.061-109.116,0.041-218.229,0-327.345
				c94.547,54.632,189.092,109.302,283.709,163.785c34.836,129.342,69.355,258.78,104.061,388.159
				c1.703,7.004,8.932,10.58,15.395,12.174c15.58,3.858,31.539-0.188,46.561-4.535c14.215-3.387,28.748-8.258,39.518-18.597
				c4.383-4.438,8.672-10.523,7.285-17.079c-24.779-93.515-50.344-186.84-74.842-280.411
				c77.014,44.556,154.104,88.998,231.135,133.5c15.656,9.085,36.615,7.566,50.813-3.652c10.73-8.034,15.508-21.07,22.418-32.082
				c11.705-20.341,4.309-48.754-15.789-60.832c-77.5-44.819-155.057-89.58-232.611-134.325
				c93.23-25.097,186.539-49.949,279.789-75.027c7.568-2.023,10.865-10.301,12.307-17.25c3.803-18.823-3.221-37.234-7.865-55.193
				C1837.822,1109.999,1832.373,1098.481,1823.176,1090.39z"/>
			<path fill="#FFFFFF" d="M1037.193,405.076c1.969,0.844,3.373,2.474,4.777,4.046c51.375,57.198,102.842,114.322,154.252,171.483
				c2.379,2.94,6.182,5.226,6.836,9.196c-110.314-0.075-220.627,0.056-330.94-0.038c0.356-0.749,1.049-2.285,1.405-3.053
				C928.286,526.366,982.524,465.516,1037.193,405.076z"/>
			<path fill="#FFFFFF" d="M214.374,853.02c44.986-11.969,89.936-24.104,134.924-36.091c0.037,38.768,0.019,77.519,0.019,116.287
				c-36.297,9.721-72.612,19.46-108.929,29.162c-8.821,2.229-16.518-4.646-21.519-11.106
				c-10.938-13.767-13.804-31.502-18.448-47.965c-3.202-13.691-4.758-29.162,1.929-42.065
				C204.691,856.615,209.354,853.806,214.374,853.02z"/>
			<path fill="#FFFFFF" d="M219.468,1091.925c5.001-6.105,12.774-12.36,21.164-9.794c36.222,9.72,72.463,19.402,108.685,29.16
				c-0.058,38.75,0.057,77.52,0,116.288c-44.444-11.911-88.87-23.843-133.295-35.716c-5.45-1.03-11.181-3.127-13.821-8.391
				c-6.649-12.36-5.451-27.288-2.566-40.548C204.521,1125.395,207.443,1106.328,219.468,1091.925z"/>
		</g>
		<g>
			<g>
				<path fill="#4ABAFF" d="M1165.955,348.965c1.875-0.412,4.74,0.881,5.92-1.255c2.904,0.881,5.936,1.479,9.027,1.349
					c27.439-0.337,54.896,0.02,82.354-0.131c10.674-0.094,21.311,4.869,27.961,13.261c4.232,4.757,5.301,11.313,8.973,16.425
					c-0.322,0.468-0.977,1.423-1.295,1.892c-0.055,129.941,0,259.902-0.018,389.845c17.211-0.057,34.443,0.112,51.674-0.094
					c0.918,2.041-1.988,2.678-3.016,3.746c-66.994,38.525-133.84,77.295-200.813,115.838
					c-25.488-18.504-55.662-30.604-87.016-34.161c-38.469-4.664-78.398,3.127-112.205,22.119
					c-30.885,17.229-56.692,43.47-73.212,74.766c-16.744,31.222-24.048,67.405-20.9,102.691c1.011,4.57-3.99,6.143-7.006,8.034
					c-69.728,40.135-139.361,80.439-209.052,120.633c-11.295,6.144-22.045,13.335-33.638,18.86
					c-0.993-25.472-0.149-51.035-0.413-76.545c0.019-84.093-0.111-168.205,0.057-252.317c-4.064,0.095-5.994,4.514-8.972,6.705
					c-54.839,49.352-109.676,98.702-164.533,148.034c-3.785,3.615-8.617,6.443-11.127,11.182
					c59.521,54.2,119.605,107.804,179.388,161.705c0.618,0.806,1.835,2.397,2.452,3.185c-15.77,10.244-32.644,18.823-48.731,28.58
					c-36.035,20.751-71.976,41.635-108.029,62.369c-3.258,2.004-6.968,3.013-10.694,3.763c-17.174-2.454-34.892,0.282-52.197-1.423
					c-16.65-3.016-30.659-17.999-31.559-35.043c-0.056-11.798,0-23.598-0.019-35.397c0.057-38.769-0.058-77.538,0-116.288
					c0-59.37-0.019-118.723,0-178.075c0-38.769,0.019-77.52-0.019-116.287c0.28-6.931-0.861-14.104,1.461-20.79
					c4.251-13.991,17.736-24.085,32.063-25.622c30.96-0.767,62.031,0.676,92.915-0.729c2.773,0.262,5.545,0.563,8.335,0.618
					c71.993-0.225,143.97,0.169,215.964-0.225c23.562,0.394,47.122,0.056,70.685,0.169c-0.02-123.519,0.037-247.036-0.02-370.554
					c0.337-9.271-1.312-19.029,2.378-27.831c5.15-13.336,18.861-22.737,33.133-22.943c24.065-0.318,48.133,0.243,72.2-0.243
					c30.021,0.393,60.063,0.074,90.104,0.149c37.457,0.056,74.916,0,112.373,0.019
					C1109.246,348.946,1137.604,348.928,1165.955,348.965z M1037.193,405.076c-54.669,60.439-108.907,121.29-163.67,181.635
					c-0.356,0.768-1.049,2.304-1.405,3.053c110.313,0.094,220.626-0.037,330.94,0.038c-0.654-3.971-4.457-6.256-6.836-9.196
					c-51.41-57.161-102.877-114.285-154.252-171.483C1040.566,407.55,1039.162,405.92,1037.193,405.076z"/>
			</g>
		</g>
	</g>
	<polyline fill="#5094BC" points="418.706,1039.841 541,1237 603.694,1202.782 	"/>
	<polyline fill="#CCCED0" points="1038.193,405.076 1132,589 1204.059,589.802 	"/>
</g>
<g>
</g>
<g>
</g>
<g>
</g>
<g>
</g>
<g>
</g>
<g>
</g>
</svg>