<svg xmlns="http://www.w3.org/2000/svg" xmlns:xlink="http://www.w3.org/1999/xlink" viewBox="0 0 8905 2252"><defs><style>.cls-1{fill:url(#linear-gradient);}.cls-2{font-size:1296px;fill:#444;font-family:FFDINRoundPro-Light, FF DIN Round Pro;letter-spacing:0.07em;}.cls-3{letter-spacing:0.07em;}.cls-4{letter-spacing:0.07em;}.cls-5{letter-spacing:0.09em;}.cls-6{letter-spacing:0.08em;}.cls-7{letter-spacing:0.07em;}.cls-8{letter-spacing:0.07em;}.cls-9{letter-spacing:0.1em;}.cls-10{fill:url(#linear-gradient-2);}.cls-11{mask:url(#mask);}.cls-12{fill:none;stroke:#828282;stroke-miterlimit:10;stroke-width:4px;}.cls-13{fill:url(#linear-gradient-3);}</style><linearGradient id="linear-gradient" x1="1171.12" y1="1126.5" x2="1171.12" y2="2081.5" gradientUnits="userSpaceOnUse"><stop offset="0.53"/><stop offset="0.72" stop-color="#2b2b2c"/><stop offset="0.9" stop-color="#4c4d4e"/><stop offset="1" stop-color="#58595b"/></linearGradient><linearGradient id="linear-gradient-2" x1="929.27" y1="231.35" x2="1408.98" y2="2021.65" gradientUnits="userSpaceOnUse"><stop offset="0" stop-color="#fefefe"/><stop offset="1" stop-color="#f0f0f0"/></linearGradient><mask id="mask" x="240.62" y="1126.5" width="1857" height="955" maskUnits="userSpaceOnUse"><rect class="cls-1" x="254.12" y="1126.5" width="1834" height="955"/></mask><linearGradient id="linear-gradient-3" x1="1036.72" y1="1618.29" x2="1300.53" y2="633.71" gradientUnits="userSpaceOnUse"><stop offset="0" stop-color="#9694ff"/><stop offset="1" stop-color="#94faff"/></linearGradient></defs><title>Logo-Logotype</title><g id="Layer_5" data-name="Layer 5"><text class="cls-2" transform="translate(2563.99 1527.77)">h<tspan class="cls-3" x="816.08" y="0">y</tspan><tspan class="cls-4" x="1470.16" y="0">d</tspan><tspan class="cls-5" x="2257.34" y="0">r</tspan><tspan class="cls-6" x="2902.09" y="0">o</tspan><tspan class="cls-7" x="3685.27" y="0">g</tspan><tspan class="cls-8" x="4478.41" y="0">e</tspan><tspan class="cls-9" x="5241.75" y="0">n</tspan></text><circle class="cls-10" cx="1169.12" cy="1126.5" r="926.5"/><g class="cls-11"><path class="cls-12" d="M2095.62,1126.5c0,511.69-414.81,926.5-926.5,926.5s-926.5-414.81-926.5-926.5"/></g><path class="cls-13" d="M1338.12,1126a169.5,169.5,0,1,1-169.5-169.5A169.5,169.5,0,0,1,1338.12,1126Zm185-409a43.5,43.5,0,1,0,43.5,43.5A43.5,43.5,0,0,0,1523.12,717Zm-156.18,878.46a511.16,511.16,0,1,0-198.32,40A507.76,507.76,0,0,0,1366.95,1595.46ZM1671.12,1126c0,277.08-225.42,502.5-502.5,502.5s-502.5-225.42-502.5-502.5,225.42-502.5,502.5-502.5S1671.12,848.92,1671.12,1126Z"/></g></svg>