<svg xmlns="http://www.w3.org/2000/svg" xmlns:xlink="http://www.w3.org/1999/xlink" viewBox="0 0 11017 2252"><defs><style>.cls-1{font-size:1296px;fill:#444;font-family:FFDINRoundPro-Light, FF DIN Round Pro;letter-spacing:0.07em;}.cls-2{letter-spacing:0.07em;}.cls-3{letter-spacing:0.08em;}.cls-4{letter-spacing:0.09em;}.cls-5{letter-spacing:0.09em;}.cls-6{letter-spacing:0.14em;}.cls-7{letter-spacing:0.09em;}.cls-8{letter-spacing:0.08em;}.cls-9{letter-spacing:0.1em;}.cls-10{fill:url(#linear-gradient);}</style><linearGradient id="linear-gradient" x1="754.81" y1="2031.23" x2="1239.92" y2="220.77" gradientUnits="userSpaceOnUse"><stop offset="0" stop-color="#e4bfff"/><stop offset="1" stop-color="#d4e5ff"/></linearGradient></defs><title>Logo-Logotype</title><g id="Layer_5" data-name="Layer 5"><text class="cls-1" transform="translate(2191.36 1589.98)">S<tspan class="cls-2" x="852.37" y="0">N</tspan><tspan class="cls-3" x="1898.88" y="0">O</tspan><tspan class="cls-4" x="2845.47" y="0">W</tspan><tspan class="cls-5" x="4061.24" y="0">F</tspan><tspan class="cls-6" x="4919.95" y="0">L</tspan><tspan class="cls-7" x="5836.99" y="0">A</tspan><tspan class="cls-8" x="6733.03" y="0">K</tspan><tspan class="cls-9" x="7680.27" y="0">E</tspan></text><path class="cls-10" d="M1685.23,1183.16c-3.85-3.43-9.3-5.69-14.41-3.89q-166.19,44.58-332.44,89.06l-4-1.69q-55.07-31.85-110.17-63.65,1.37-4,2.59-8.09a240.64,240.64,0,0,0,.94-134.64q-1.24-4.34-2.64-8.62,56.21-32.46,112.42-64.89c2-.26,3.87.82,5.82,1.18l328.29,88c5.29,1.71,10.74-1.08,14.56-4.64,7.93-7.4,12.56-17.66,15.45-27.94,3.85-14.79,9.43-30,6.35-45.46-1.19-6.42-4.42-14-11.51-15.45-80-21.32-159.91-43.05-240-64.15q25.65-15,51.39-29.91a45.28,45.28,0,0,0,6.34-3.37q71-41,142-82c14-8,21.17-25,19.79-40.68-1-12-8.92-21.46-14.33-31.69-6.44-11.22-18.75-18-31.42-18.88a37.64,37.64,0,0,0-21.7,4.64Q1508.83,774,1409.1,831.62c21.66-80,43-160.16,64.48-240.25,1.6-4.8-.84-9.84-3.93-13.49-7.06-8.13-17.21-12.89-27.37-15.95-9.46-2.43-19-5.62-28.72-6.95l-1-.13-1.18-.14a52.88,52.88,0,0,0-14.95.26c-6.48,1.06-14.34,3.71-16.46,10.66q-44.82,167-89.54,334c-3.44,3.19-8.18,4.92-12.17,7.43l.05.35q-51.14,29.55-102.32,59-3-3.32-6.06-6.54a239,239,0,0,0-114.68-66.34q-4.32-1.07-8.69-2,0-66.25,0-132.51,122.39-122.63,245-245c5.13-5.53,3.21-14,.73-20.37-5.06-13.16-15.95-22.53-25.64-32.28-7.45-7.79-16.41-14.58-26.85-17.74-5.1-1.42-11.26-2.11-15.74,1.26C1164.63,503.71,1105.75,563,1046.52,622q0-115.3,0-230.61c-.08-15.29-10.16-29.82-24.3-35.52-10.19-4.52-21.54-2.56-32.33-3-16.14-.47-31.78,10.17-37.39,25.3-3.74,9.31-2.49,19.5-2.71,29.27q0,107.27,0,214.53C890.72,563.22,832,504.12,772.94,445.29c-4.58-4-11.38-3.13-16.8-1.55-12.64,4-22.49,13.3-31.44,22.65-9.31,8.85-18.38,18.87-21.93,31.53-1.43,5.43-1.85,12.22,2.48,16.48Q827.52,636.72,949.81,759q0,66.12,0,132.23-4.22.85-8.4,1.85a239,239,0,0,0-115.63,65.85q-3.18,3.26-6.22,6.65-57-32.91-114-65.75-45-167-89.59-334.2c-1.47-6-7.69-9.11-13.25-10.48-13.41-3.32-27.15.16-40.09,3.9-12.24,2.92-24.75,7.11-34,16-3.77,3.82-7.47,9.06-6.27,14.7,21.33,80.51,43.34,160.86,64.44,241.43q-99.46-57.54-199-114.94A39.88,39.88,0,0,0,344,719.39c-9.24,6.92-13.35,18.14-19.3,27.62-10.08,17.51-3.71,42,13.59,52.37Q438.38,857.27,538.56,915q-120.4,32.41-240.89,64.6c-6.52,1.74-9.35,8.87-10.6,14.85-3.27,16.21,2.77,32.06,6.77,47.52,3,9.95,7.74,19.87,15.66,26.83,3.85,3.43,9.3,5.69,14.41,3.89q166.19-44.58,332.44-89.06l4,1.69q55.07,31.85,110.17,63.65-1.37,4-2.59,8.09a240.65,240.65,0,0,0-.95,134.63q1.24,4.34,2.64,8.62-56.21,32.46-112.42,64.89c-2,.26-3.87-.82-5.82-1.18l-328.29-88c-5.29-1.71-10.74,1.08-14.56,4.64-7.93,7.4-12.56,17.66-15.45,27.94-3.85,14.79-9.43,30-6.35,45.46,1.19,6.42,4.42,14,11.51,15.45,80,21.32,159.91,43.05,240,64.15q-25.65,15-51.39,29.91a45.31,45.31,0,0,0-6.34,3.37q-71,41-142,82c-14,8-21.17,25-19.79,40.68,1,12,8.92,21.46,14.33,31.69,6.44,11.22,18.75,18,31.41,18.88a37.64,37.64,0,0,0,21.7-4.64q99.74-57.57,199.47-115.18c-21.66,80-43,160.16-64.48,240.25-1.6,4.8.84,9.84,3.93,13.49,7.06,8.13,17.21,12.88,27.37,15.95,9.46,2.43,19,5.62,28.72,6.95l1,.13,1.18.14a52.87,52.87,0,0,0,14.95-.26c6.48-1.06,14.34-3.71,16.46-10.66q44.82-167,89.54-334c3.44-3.19,8.18-4.92,12.17-7.43l-.05-.35q51.14-29.55,102.32-59,3,3.32,6.06,6.54a239,239,0,0,0,114.68,66.34q4.32,1.07,8.69,2,0,66.25,0,132.51-122.39,122.63-245,245c-5.13,5.53-3.21,14-.73,20.37,5.06,13.16,15.95,22.53,25.64,32.28,7.45,7.79,16.41,14.58,26.85,17.74,5.1,1.42,11.26,2.11,15.74-1.26C830.11,1748.29,889,1689,948.21,1630q0,115.3,0,230.61c.08,15.29,10.16,29.82,24.3,35.52,10.19,4.52,21.54,2.56,32.33,3,16.14.47,31.78-10.17,37.39-25.3,3.74-9.31,2.49-19.5,2.71-29.27q0-107.27,0-214.53c59.08,58.76,117.84,117.86,176.86,176.68,4.58,4,11.38,3.13,16.8,1.55,12.64-4,22.49-13.3,31.44-22.65,9.31-8.85,18.38-18.87,21.93-31.53,1.43-5.43,1.85-12.22-2.48-16.48Q1167.22,1615.28,1044.93,1493q0-66.12,0-132.23,4.22-.85,8.4-1.85A239,239,0,0,0,1169,1293.08q3.18-3.26,6.22-6.65,57,32.91,114,65.75,45,167,89.59,334.2c1.47,6,7.69,9.11,13.25,10.48,13.41,3.32,27.15-.16,40.09-3.9,12.24-2.92,24.75-7.11,34-16,3.77-3.82,7.47-9.06,6.27-14.7-21.33-80.51-43.34-160.86-64.44-241.43q99.46,57.54,199,114.94a39.88,39.88,0,0,0,43.75-3.14c9.24-6.92,13.35-18.14,19.3-27.62,10.08-17.51,3.71-42-13.59-52.37q-100.09-57.88-200.27-115.65,120.4-32.41,240.89-64.6c6.52-1.74,9.35-8.87,10.6-14.85,3.27-16.21-2.77-32.06-6.77-47.52C1697.84,1200,1693.15,1190.13,1685.23,1183.16Zm-648.68,105.62a169.35,169.35,0,0,1-79.66-.32,167.26,167.26,0,1,1,79.66.32Zm-39.18,807.44-856.6-484.69V640.47l856.6-484.69L1854,640.47v971.07Z"/></g></svg>