<svg xmlns="http://www.w3.org/2000/svg" xmlns:xlink="http://www.w3.org/1999/xlink" viewBox="0 0 10696 2252"><defs><style>.cls-1{fill:#444;}.cls-2{fill:url(#linear-gradient);}</style><linearGradient id="linear-gradient" x1="754.81" y1="2031.23" x2="1239.92" y2="220.77" gradientUnits="userSpaceOnUse"><stop offset="0" stop-color="#e4bfff"/><stop offset="1" stop-color="#d4e5ff"/></linearGradient></defs><title>Logo-Logotype</title><g id="Layer_5" data-name="Layer 5"><path class="cls-1" d="M2514.06,1149.34c-73.22-11.66-117.94-29.16-164.59-68-48.6-40.82-72.58-97.85-72.58-169.13,0-154.22,110.16-252.72,286.41-252.72,98.5,0,158.76,20.09,232,71.93,14.26,10.37,25.92,22,25.92,36.29,0,8.42-1.94,14.26-7.13,20.09-6.48,7.78-13.61,11-24,11s-22.68-7.13-36.94-17.5c-67.39-48-110.81-61.56-193.75-61.56-133.49,0-213.84,73.22-213.84,189.86,0,53.14,15.55,94.61,48,121.82,37.58,31.1,70.63,45.36,137.38,55.73l99.79,15.55c86.83,13.61,127,28.51,165.89,60.91,50.54,41.47,79.06,105,79.06,178.85,0,155.52-119.23,255.31-311,255.31-107.57,0-189.21-20.74-273.45-90.07-13.61-11-24.62-23.33-24.62-37.58,0-9.07,2.59-17.5,9.72-24.62a32.89,32.89,0,0,1,23.33-9.72c13,0,24,9.07,36.94,19.44,75.17,62.21,134.13,80.35,232,80.35,145.15,0,237.17-70,237.17-190.51,0-54.43-16.85-100.44-50.54-129.6s-59-37.58-133.49-49.25Z"/><path class="cls-1" d="M3846.59,1584.15a39.86,39.86,0,0,1-27.22,11c-17.5,0-29.16-10.37-38.88-24.62l-524.23-775v751c0,20.09-1.94,26.57-7.78,35.64-5.83,8.42-14.9,13-27.22,13s-21.38-4.54-27.22-13c-5.83-9.07-7.78-15.55-7.78-35.64V710.65c0-19.44,4.54-29.81,12.31-37.58a39.86,39.86,0,0,1,27.22-11c17.5,0,29.16,10.37,38.88,24.62l524.23,775v-751c0-20.09,1.94-26.57,7.78-35.64,5.83-8.42,14.9-13,27.22-13s21.38,4.54,27.22,13c5.83,9.07,7.78,15.55,7.78,35.64v835.91C3858.91,1566,3854.37,1576.37,3846.59,1584.15Z"/><path class="cls-1" d="M4512.74,1597.75c-92,0-169.78-33.7-224.21-88.13-85.54-85.54-92-156.81-92-381s6.48-295.49,92-381c54.43-54.43,132.19-88.13,224.21-88.13s169.77,33.7,224.21,88.13c85.54,85.54,92,156.81,92,381s-6.48,295.49-92,381C4682.51,1564.06,4604.75,1597.75,4512.74,1597.75ZM4759,1128.6c0-194.4-5.18-269.57-71.28-335.66-48-48-107.57-71.28-175-71.28s-127,23.33-175,71.28c-66.1,66.1-71.28,141.26-71.28,335.66s5.18,269.57,71.28,335.66c48,48,107.57,71.28,175,71.28s127-23.33,175-71.28C4753.79,1398.17,4759,1323,4759,1128.6Z"/><path class="cls-1" d="M5588.93,783.87l-208.65,768.52c-3.24,11.66-8.42,24-15.55,31.1a38.63,38.63,0,0,1-28.51,11.66c-10.37,0-19.44-2.59-28.51-11.66-7.13-7.13-12.31-18.14-15.55-31.1L5083.49,716.48c-4.54-18.14-4.54-25.27-1.3-34.34,4.54-13,18.14-20.09,30.46-20.09,7.78,0,15.55,2.59,20.74,7.13,7.13,6.48,10.37,13,14.9,31.1l191.16,770.47,205.42-765.93c3.24-13,7.78-24,15.55-31.1s16.2-10.37,28.51-10.37,20.74,3.24,28.51,10.37,12.31,18.14,15.55,31.1l205.42,765.93,191.16-770.47c4.54-18.14,7.78-24.62,14.9-31.1,5.18-4.54,13-7.13,20.74-7.13,12.31,0,25.92,7.13,30.46,20.09,3.24,9.07,3.24,16.2-1.3,34.34l-208.65,835.91c-3.24,13-8.42,24-15.55,31.1-9.07,9.07-18.14,11.66-28.51,11.66a38.63,38.63,0,0,1-28.51-11.66c-7.13-7.13-12.31-19.44-15.55-31.1Z"/><path class="cls-1" d="M6395.16,708.7c0-10.37,0-22,9.72-31.75s21.38-9.72,31.75-9.72H6915.5c18.14,0,25.92,1.94,32.4,6.48,8.42,6.48,12.31,14.26,12.31,24.62s-3.89,18.14-12.31,24.62c-6.48,4.54-14.26,6.48-32.4,6.48H6465.14v379.72h377.78c18.14,0,25.92,1.94,32.4,6.48,8.42,6.48,12.31,14.26,12.31,24.62s-3.89,18.14-12.31,24.62c-6.48,4.54-14.26,6.48-32.4,6.48H6465.14v375.19c0,20.09-1.94,26.57-7.78,35.64-5.83,8.42-14.9,13-27.22,13s-21.38-4.54-27.22-13c-5.83-9.07-7.78-15.55-7.78-35.64Z"/><path class="cls-1" d="M7295.34,1590c-10.37,0-22,0-31.75-9.72s-9.72-21.38-9.72-31.75V710.65c0-20.09,1.94-26.57,7.78-35.64,5.83-8.42,14.9-13,27.22-13s21.38,4.54,27.22,13c5.83,9.07,7.78,15.55,7.78,35.64v817.12h450.36c18.14,0,25.92,1.94,32.4,6.48,8.42,6.48,12.31,14.26,12.31,24.62s-3.89,18.14-12.31,24.62c-6.48,4.54-14.26,6.48-32.4,6.48Z"/><path class="cls-1" d="M8377.62,705.46c5.83-15.55,9.07-22.68,13.61-29.16a33.11,33.11,0,0,1,54.43,0c4.54,6.48,7.78,13.61,13.61,29.16L8769,1534.9c7.13,18.14,11,36.29-2.59,49.9-6.48,6.48-16.2,10.37-26.57,10.37A32.12,32.12,0,0,1,8723,1590c-8.42-5.83-12.31-12.31-19.44-30.46l-73.22-193.75H8206.55l-73.22,193.75c-7.13,18.14-11,24.62-19.44,30.46a32.11,32.11,0,0,1-16.85,5.18c-10.37,0-20.09-3.89-26.57-10.37-13.61-13.61-9.72-31.75-2.59-49.9Zm40.82,75.17-189.86,522.93h379.72Z"/><path class="cls-1" d="M9356.61,1067.69l-219.67,265v213.84c0,20.09-1.94,26.57-7.78,35.64-5.83,8.42-14.9,13-27.22,13s-21.38-4.54-27.22-13c-5.83-9.07-7.78-15.55-7.78-35.64V710.65c0-20.09,1.94-26.57,7.78-35.64,5.83-8.42,14.9-13,27.22-13s21.38,4.54,27.22,13c5.83,9.07,7.78,15.55,7.78,35.64v524.88l453.6-552.09c7.13-9.07,17.5-21.38,33-21.38a32.47,32.47,0,0,1,22,8.42c8.42,7.13,13,16.2,12.31,26.57-.65,9.07-4.54,16.2-15.55,29.81L9406.5,1013.91,9700,1530.36c7.78,13.61,11,22.68,11,31.75,0,11-5.18,21.38-16.85,27.86-5.83,3.24-12.31,5.18-17.5,5.18-20.09,0-29.81-16.2-37.58-29.81Z"/><path class="cls-1" d="M10055.66,1590c-10.37,0-22,0-31.75-9.72s-9.72-21.38-9.72-31.75V708.7c0-10.37,0-22,9.72-31.75s21.38-9.72,31.75-9.72h478.87c18.14,0,25.92,1.94,32.4,6.48,8.42,6.48,12.31,14.26,12.31,24.62s-3.89,18.14-12.31,24.62c-6.48,4.54-14.26,6.48-32.4,6.48h-450.36v364.17H10462c18.14,0,25.92,1.94,32.4,6.48,8.42,6.48,12.31,14.26,12.31,24.62s-3.89,18.14-12.31,24.62c-6.48,4.54-14.26,6.48-32.4,6.48h-377.78v371.95h450.36c18.14,0,25.92,1.94,32.4,6.48,8.42,6.48,12.31,14.26,12.31,24.62s-3.89,18.14-12.31,24.62c-6.48,4.54-14.26,6.48-32.4,6.48Z"/><path class="cls-2" d="M1685.23,1183.16c-3.85-3.43-9.3-5.69-14.41-3.89q-166.19,44.58-332.44,89.06l-4-1.69q-55.07-31.85-110.17-63.65,1.37-4,2.59-8.09a240.64,240.64,0,0,0,.94-134.64q-1.24-4.34-2.64-8.62,56.21-32.46,112.42-64.89c2-.26,3.87.82,5.82,1.18l328.29,88c5.29,1.71,10.74-1.08,14.56-4.64,7.93-7.4,12.56-17.66,15.45-27.94,3.85-14.79,9.43-30,6.35-45.46-1.19-6.42-4.42-14-11.51-15.45-80-21.32-159.91-43.05-240-64.15q25.65-15,51.39-29.91a45.28,45.28,0,0,0,6.34-3.37q71-41,142-82c14-8,21.17-25,19.79-40.68-1-12-8.92-21.46-14.33-31.69-6.44-11.22-18.75-18-31.42-18.88a37.64,37.64,0,0,0-21.7,4.64Q1508.83,774,1409.1,831.62c21.66-80,43-160.16,64.48-240.25,1.6-4.8-.84-9.84-3.93-13.49-7.06-8.13-17.21-12.89-27.37-15.95-9.46-2.43-19-5.62-28.72-6.95l-1-.13-1.18-.14a52.88,52.88,0,0,0-14.95.26c-6.48,1.06-14.34,3.71-16.46,10.66q-44.82,167-89.54,334c-3.44,3.19-8.18,4.92-12.17,7.43l.05.35q-51.14,29.55-102.32,59-3-3.32-6.06-6.54a239,239,0,0,0-114.68-66.34q-4.32-1.07-8.69-2,0-66.25,0-132.51,122.39-122.63,245-245c5.13-5.53,3.21-14,.73-20.37-5.06-13.16-15.95-22.53-25.64-32.28-7.45-7.79-16.41-14.58-26.85-17.74-5.1-1.42-11.26-2.11-15.74,1.26C1164.63,503.71,1105.75,563,1046.52,622q0-115.3,0-230.61c-.08-15.29-10.16-29.82-24.3-35.52-10.19-4.52-21.54-2.56-32.33-3-16.14-.47-31.78,10.17-37.39,25.3-3.74,9.31-2.49,19.5-2.71,29.27q0,107.27,0,214.53C890.72,563.22,832,504.12,772.94,445.29c-4.58-4-11.38-3.13-16.8-1.55-12.64,4-22.49,13.3-31.44,22.65-9.31,8.85-18.38,18.87-21.93,31.53-1.43,5.43-1.85,12.22,2.48,16.48Q827.52,636.72,949.81,759q0,66.12,0,132.23-4.22.85-8.4,1.85a239,239,0,0,0-115.63,65.85q-3.18,3.26-6.22,6.65-57-32.91-114-65.75-45-167-89.59-334.2c-1.47-6-7.69-9.11-13.25-10.48-13.41-3.32-27.15.16-40.09,3.9-12.24,2.92-24.75,7.11-34,16-3.77,3.82-7.47,9.06-6.27,14.7,21.33,80.51,43.34,160.86,64.44,241.43q-99.46-57.54-199-114.94A39.88,39.88,0,0,0,344,719.39c-9.24,6.92-13.35,18.14-19.3,27.62-10.08,17.51-3.71,42,13.59,52.37Q438.38,857.27,538.56,915q-120.4,32.41-240.89,64.6c-6.52,1.74-9.35,8.87-10.6,14.85-3.27,16.21,2.77,32.06,6.77,47.52,3,9.95,7.74,19.87,15.66,26.83,3.85,3.43,9.3,5.69,14.41,3.89q166.19-44.58,332.44-89.06l4,1.69q55.07,31.85,110.17,63.65-1.37,4-2.59,8.09a240.65,240.65,0,0,0-.95,134.63q1.24,4.34,2.64,8.62-56.21,32.46-112.42,64.89c-2,.26-3.87-.82-5.82-1.18l-328.29-88c-5.29-1.71-10.74,1.08-14.56,4.64-7.93,7.4-12.56,17.66-15.45,27.94-3.85,14.79-9.43,30-6.35,45.46,1.19,6.42,4.42,14,11.51,15.45,80,21.32,159.91,43.05,240,64.15q-25.65,15-51.39,29.91a45.31,45.31,0,0,0-6.34,3.37q-71,41-142,82c-14,8-21.17,25-19.79,40.68,1,12,8.92,21.46,14.33,31.69,6.44,11.22,18.75,18,31.41,18.88a37.64,37.64,0,0,0,21.7-4.64q99.74-57.57,199.47-115.18c-21.66,80-43,160.16-64.48,240.25-1.6,4.8.84,9.84,3.93,13.49,7.06,8.13,17.21,12.88,27.37,15.95,9.46,2.43,19,5.62,28.72,6.95l1,.13,1.18.14a52.87,52.87,0,0,0,14.95-.26c6.48-1.06,14.34-3.71,16.46-10.66q44.82-167,89.54-334c3.44-3.19,8.18-4.92,12.17-7.43l-.05-.35q51.14-29.55,102.32-59,3,3.32,6.06,6.54a239,239,0,0,0,114.68,66.34q4.32,1.07,8.69,2,0,66.25,0,132.51-122.39,122.63-245,245c-5.13,5.53-3.21,14-.73,20.37,5.06,13.16,15.95,22.53,25.64,32.28,7.45,7.79,16.41,14.58,26.85,17.74,5.1,1.42,11.26,2.11,15.74-1.26C830.11,1748.29,889,1689,948.21,1630q0,115.3,0,230.61c.08,15.29,10.16,29.82,24.3,35.52,10.19,4.52,21.54,2.56,32.33,3,16.14.47,31.78-10.17,37.39-25.3,3.74-9.31,2.49-19.5,2.71-29.27q0-107.27,0-214.53c59.08,58.76,117.84,117.86,176.86,176.68,4.58,4,11.38,3.13,16.8,1.55,12.64-4,22.49-13.3,31.44-22.65,9.31-8.85,18.38-18.87,21.93-31.53,1.43-5.43,1.85-12.22-2.48-16.48Q1167.22,1615.28,1044.93,1493q0-66.12,0-132.23,4.22-.85,8.4-1.85A239,239,0,0,0,1169,1293.08q3.18-3.26,6.22-6.65,57,32.91,114,65.75,45,167,89.59,334.2c1.47,6,7.69,9.11,13.25,10.48,13.41,3.32,27.15-.16,40.09-3.9,12.24-2.92,24.75-7.11,34-16,3.77-3.82,7.47-9.06,6.27-14.7-21.33-80.51-43.34-160.86-64.44-241.43q99.46,57.54,199,114.94a39.88,39.88,0,0,0,43.75-3.14c9.24-6.92,13.35-18.14,19.3-27.62,10.08-17.51,3.71-42-13.59-52.37q-100.09-57.88-200.27-115.65,120.4-32.41,240.89-64.6c6.52-1.74,9.35-8.87,10.6-14.85,3.27-16.21-2.77-32.06-6.77-47.52C1697.84,1200,1693.15,1190.13,1685.23,1183.16Zm-648.68,105.62a169.35,169.35,0,0,1-79.66-.32,167.26,167.26,0,1,1,79.66.32Zm-39.18,807.44-856.6-484.69V640.47l856.6-484.69L1854,640.47v971.07Z"/></g></svg>