<svg xmlns="http://www.w3.org/2000/svg" xmlns:xlink="http://www.w3.org/1999/xlink" viewBox="0 0 8905 2252"><defs><style>.cls-1{fill:url(#linear-gradient);}.cls-2{fill:#444;}.cls-3{fill:url(#linear-gradient-2);}.cls-4{mask:url(#mask);}.cls-5{fill:none;stroke:#828282;stroke-miterlimit:10;stroke-width:4px;}.cls-6{fill:url(#linear-gradient-3);}</style><linearGradient id="linear-gradient" x1="1171.12" y1="1126.5" x2="1171.12" y2="2081.5" gradientUnits="userSpaceOnUse"><stop offset="0.53"/><stop offset="0.72" stop-color="#2b2b2c"/><stop offset="0.9" stop-color="#4c4d4e"/><stop offset="1" stop-color="#58595b"/></linearGradient><linearGradient id="linear-gradient-2" x1="929.27" y1="231.35" x2="1408.98" y2="2021.65" gradientUnits="userSpaceOnUse"><stop offset="0" stop-color="#fefefe"/><stop offset="1" stop-color="#f0f0f0"/></linearGradient><mask id="mask" x="240.62" y="1126.5" width="1857" height="955" maskUnits="userSpaceOnUse"><rect class="cls-1" x="254.12" y="1126.5" width="1834" height="955"/></mask><linearGradient id="linear-gradient-3" x1="1036.72" y1="1618.29" x2="1300.53" y2="633.71" gradientUnits="userSpaceOnUse"><stop offset="0" stop-color="#9694ff"/><stop offset="1" stop-color="#94faff"/></linearGradient></defs><title>Logo-Logotype</title><g id="Layer_5" data-name="Layer 5"><path class="cls-2" d="M3105.71,1141.56c0-120.53-59.62-186.62-172.37-186.62s-176.25,67.39-176.25,186.62v346c0,17.5-1.94,24.62-7.13,32.4s-15.55,13-26.57,13-21.38-5.18-26.57-13-7.13-14.9-7.13-32.4V645.2c0-17.5,1.94-24.62,7.13-32.4s15.55-13,26.57-13,21.38,5.18,26.57,13,7.13,14.9,7.13,32.4V977c46.66-54.43,108.86-81.65,184-81.65,70,0,127,20.74,167.18,59.62,42.12,40.18,64.8,99.79,64.8,173.66v359c0,17.5-1.94,24.62-7.13,32.4s-15.55,13-26.57,13-21.38-5.18-26.57-13-7.13-14.9-7.13-32.4Z"/><path class="cls-2" d="M3626.95,1527.77,3425.42,952.35c-5.18-15.55-6.48-24.62-3.24-33.7,4.54-12.31,15.55-20.74,30.46-20.74,18.14,0,27.86,12.31,35,33.7l171.07,513.86,171.07-513.86c7.13-21.38,16.85-33.7,35-33.7,14.9,0,25.92,8.42,30.46,20.74,3.24,9.07,1.94,18.14-3.24,33.7l-258.55,745.19c-9.72,28.51-23.33,55.08-42.77,73.22-31.75,29.16-68.69,39.53-110.16,39.53-17.5,0-25.27-2.59-31.1-6.48-7.78-5.18-11.66-11.66-11.66-23.33,0-9.07,3.89-18.14,11.66-23.33,5.18-3.89,13-6.48,27.22-6.48,51.84,0,82.94-20.09,104.33-84.24Z"/><path class="cls-2" d="M4603.73,1520c-5.18,7.78-15.55,13-26.57,13s-21.38-5.18-26.57-13-7.13-14.9-7.13-32.4v-40.18c-54.43,72.58-115.34,88.13-185.33,88.13-64.8,0-120.53-22-152.93-54.43-63.5-63.5-81.65-160.7-81.65-265.68s18.14-202.17,81.65-265.68c32.4-32.4,88.13-54.43,152.93-54.43,70,0,130.89,15.55,185.33,88.13V645.2c0-17.5,1.94-24.62,7.13-32.4s15.55-13,26.57-13,21.38,5.18,26.57,13,7.13,14.9,7.13,32.4v842.39C4610.86,1505.09,4608.92,1512.21,4603.73,1520Zm-60.26-304.56c0-129.6-23.33-260.49-176.25-260.49S4191,1085.83,4191,1215.43s23.33,260.49,176.25,260.49S4543.47,1345,4543.47,1215.43Z"/><path class="cls-2" d="M4947,943.28c0-17.5,1.94-24.62,7.13-32.4s15.55-13,26.57-13,21.38,5.18,26.57,13,7.13,14.9,7.13,32.4V986c36.29-58.32,108.86-90.72,181.44-90.72,42.77,0,77.76,7.78,114,29.81,16.85,10.37,32.4,22,32.4,40.18a33.82,33.82,0,0,1-9.07,22c-6.48,6.48-14.26,10.37-23.33,10.37s-16.85-3.89-40.18-18.14a162.57,162.57,0,0,0-85.54-24.62c-111.46,0-169.77,88.13-169.77,189.21v343.44c0,17.5-1.94,24.62-7.13,32.4s-15.55,13-26.57,13-21.38-5.18-26.57-13-7.13-14.9-7.13-32.4Z"/><path class="cls-2" d="M5808.22,1535.54c-70,0-129.6-24.62-173.66-68.69-68-68-79.06-162-79.06-251.42s11-183.38,79.06-251.42c44.06-44.06,103.68-68.69,173.66-68.69s129.6,24.62,173.66,68.69c68,68,79.06,162,79.06,251.42s-11,183.38-79.06,251.42C5937.82,1510.92,5878.21,1535.54,5808.22,1535.54Zm185.33-320.11c0-74.52-7.78-158.76-57-208-35-35-76.46-52.49-128.3-52.49s-93.31,17.5-128.3,52.49c-49.25,49.25-57,133.49-57,208s7.78,158.76,57,208c35,35,76.46,52.49,128.3,52.49s93.31-17.5,128.3-52.49C5985.77,1374.19,5993.55,1290,5993.55,1215.43Z"/><path class="cls-2" d="M6758.58,1447.42c-54.43,72.58-115.34,88.13-185.33,88.13-64.8,0-120.53-22-152.93-54.43-63.5-63.5-81.65-160.7-81.65-265.68s18.14-202.17,81.65-265.68c32.4-32.4,88.13-54.43,152.93-54.43,70,0,130.9,15.55,185.33,88.13V943.28c0-17.5,1.94-24.62,7.13-32.4s15.55-13,26.57-13,21.38,5.18,26.57,13,7.13,14.9,7.13,32.4v619.48c0,156.81-94.61,270.86-256.61,270.86-55.08,0-93.31-7.78-132.19-28.51-18.79-10.37-67.39-38.88-67.39-64.8,0-20.74,16.85-32.4,29.81-32.4,14.26,0,24.62,11.66,41.47,25.92,35,30.46,77.11,41.47,128.3,41.47,130.9,0,189.21-93.31,189.21-216.43Zm0-232c0-129.6-23.33-260.49-176.25-260.49s-176.25,130.9-176.25,260.49,23.33,260.49,176.25,260.49S6758.58,1345,6758.58,1215.43Z"/><path class="cls-2" d="M7199.21,1229.69c0,158.11,71.28,246.24,203.47,246.24,52.49,0,103.68-14.26,143.85-49.25,18.14-16.2,25.27-22,37.58-22,15.55,0,29.81,14.9,29.81,29.81,0,27.86-45.36,55.73-66.09,67.39-35,20.09-86.83,33.7-149,33.7-172.37,0-267-111.46-267-320.11,0-206.06,95.9-320.11,251.42-320.11,154.87,0,250.13,114,250.13,294.19,0,8.42,0,22-9.07,31.1s-20.74,9.07-31.1,9.07ZM7567.27,1174c-2.59-51.84-6.48-75.82-22-114.69-25.92-64.8-88.13-104.33-162-104.33s-136.08,40.18-162,104.33c-15.55,38.88-19.44,62.86-22,114.69Z"/><path class="cls-2" d="M8347.46,1141.56c0-120.53-59.62-186.62-172.37-186.62s-176.25,67.39-176.25,186.62v346c0,17.5-1.94,24.62-7.13,32.4s-15.55,13-26.57,13-21.38-5.18-26.57-13-7.13-14.9-7.13-32.4V943.28c0-17.5,1.94-24.62,7.13-32.4s15.55-13,26.57-13,21.38,5.18,26.57,13,7.13,14.9,7.13,32.4V977c46.66-54.43,108.86-81.65,184-81.65,70,0,127,20.74,167.18,59.62,42.12,40.18,64.8,99.79,64.8,173.66v359c0,17.5-1.94,24.62-7.13,32.4s-15.55,13-26.57,13-21.38-5.18-26.57-13-7.13-14.9-7.13-32.4Z"/><circle class="cls-3" cx="1169.12" cy="1126.5" r="926.5"/><g class="cls-4"><path class="cls-5" d="M2095.62,1126.5c0,511.69-414.81,926.5-926.5,926.5s-926.5-414.81-926.5-926.5"/></g><path class="cls-6" d="M1338.12,1126a169.5,169.5,0,1,1-169.5-169.5A169.5,169.5,0,0,1,1338.12,1126Zm185-409a43.5,43.5,0,1,0,43.5,43.5A43.5,43.5,0,0,0,1523.12,717Zm-156.18,878.46a511.16,511.16,0,1,0-198.32,40A507.76,507.76,0,0,0,1366.95,1595.46ZM1671.12,1126c0,277.08-225.42,502.5-502.5,502.5s-502.5-225.42-502.5-502.5,225.42-502.5,502.5-502.5S1671.12,848.92,1671.12,1126Z"/></g></svg>